<svg width="17" height="17" viewBox="0 0 17 17" fill="none" xmlns="http://www.w3.org/2000/svg">
<path d="M10.7735 8.45486L16.4299 2.79864C17.0701 2.15838 17.0701 1.12048 16.4299 0.480226C15.7898 -0.160032 14.7517 -0.159901 14.1115 0.480226L8.45512 6.13658L2.79864 0.480095C2.15838 -0.160032 1.12048 -0.160032 0.480226 0.480095C-0.159901 1.12035 -0.159901 2.15825 0.480226 2.79851L6.13658 8.45486L0.480095 14.1114C-0.160032 14.7516 -0.160032 15.7895 0.480095 16.4299C0.800224 16.7499 1.21976 16.9099 1.6393 16.9099C2.05884 16.9099 2.47838 16.7498 2.79851 16.4299L8.45499 10.7733L14.1115 16.4299C14.4316 16.7498 14.8511 16.9099 15.2707 16.9099C15.6902 16.9099 16.1098 16.7498 16.4299 16.4299C17.0701 15.7895 17.0701 14.7516 16.4299 14.1114L10.7735 8.45486Z" fill="#263238"/>
</svg>
