<svg width="19" height="18" viewBox="0 0 19 18" fill="none" xmlns="http://www.w3.org/2000/svg">
<circle cx="9.29688" cy="9" r="9" fill="#D8D8D8" fill-opacity="0.3"/>
<path d="M13.1796 5.1173C13.0232 4.9609 12.7704 4.9609 12.614 5.1173L9.29688 8.43446L5.97976 5.1173C5.82336 4.9609 5.57057 4.9609 5.41417 5.1173C5.25778 5.2737 5.25778 5.52649 5.41417 5.68289L8.73129 9.00005L5.41417 12.3172C5.25778 12.4736 5.25778 12.7264 5.41417 12.8828C5.49217 12.9608 5.59457 13 5.69697 13C5.79936 13 5.90176 12.9608 5.97976 12.8828L9.29688 9.56564L12.614 12.8828C12.692 12.9608 12.7944 13 12.8968 13C12.9992 13 13.1016 12.9608 13.1796 12.8828C13.336 12.7264 13.336 12.4736 13.1796 12.3172L9.86246 9.00005L13.1796 5.68289C13.336 5.52649 13.336 5.2737 13.1796 5.1173Z" fill="#979797"/>
</svg>
