<svg width="43" height="39" viewBox="0 0 43 39" fill="none" xmlns="http://www.w3.org/2000/svg">
<rect y="0.0410156" width="42.56" height="38" rx="6" fill="white"/>
<g clip-path="url(#clip0_1152_3214)">
<path d="M21.5201 30.4411C27.8162 30.4411 32.9201 25.3372 32.9201 19.0411C32.9201 12.7451 27.8162 7.64111 21.5201 7.64111C15.2241 7.64111 10.1201 12.7451 10.1201 19.0411C10.1201 25.3372 15.2241 30.4411 21.5201 30.4411Z" fill="#3B5998"/>
<path d="M24.3862 19.4874H22.352V26.9397H19.27V19.4874H17.8042V16.8684H19.27V15.1735C19.27 13.9616 19.8457 12.0637 22.3794 12.0637L24.6623 12.0733V14.6155H23.0059C22.7342 14.6155 22.3522 14.7512 22.3522 15.3294V16.8708H24.6554L24.3862 19.4874Z" fill="white"/>
</g>
<defs>
<clipPath id="clip0_1152_3214">
<rect width="22.8" height="22.8" fill="white" transform="translate(10.1201 7.64111)"/>
</clipPath>
</defs>
</svg>
