<svg width="198" height="161" viewBox="0 0 198 161" fill="none" xmlns="http://www.w3.org/2000/svg">
<g clip-path="url(#clip0_5808_8114)">
<path d="M83.9403 6.07382C64.9866 6.78728 45.7494 12.1603 30.9656 24.0743C16.1818 35.9883 6.51281 55.0115 8.60408 73.9527C10.1725 88.1333 17.9581 100.919 27.1862 111.785C44.0927 131.685 66.9645 146.971 92.4755 152.388C117.987 157.805 146.061 152.685 166.571 136.541C187.08 120.396 198.841 92.8749 194.009 67.1907C185.04 19.8883 125.016 4.51433 83.9403 6.07382Z" fill="#DAF5FF"/>
<path d="M88.8161 146.03C88.6954 146.03 88.5773 145.995 88.4759 145.929C88.4015 145.886 88.3367 145.828 88.2855 145.758C88.2344 145.689 88.1979 145.61 88.1785 145.526C88.159 145.442 88.1569 145.355 88.1723 145.27C88.1877 145.185 88.2203 145.104 88.268 145.033L97.6347 130.006C97.7266 129.859 97.8727 129.756 98.0411 129.717C98.2094 129.679 98.3861 129.709 98.5323 129.801C98.6785 129.893 98.7822 130.039 98.8205 130.208C98.8589 130.377 98.8289 130.554 98.737 130.7L89.3389 145.727C89.284 145.817 89.2074 145.893 89.1161 145.946C89.0247 145.999 88.9216 146.028 88.8161 146.03Z" fill="white"/>
<path d="M93.8175 146.03C93.6946 146.031 93.5742 145.996 93.471 145.929C93.3966 145.886 93.3318 145.828 93.2806 145.758C93.2295 145.689 93.1931 145.61 93.1736 145.526C93.1541 145.442 93.152 145.355 93.1674 145.27C93.1828 145.185 93.2154 145.104 93.2632 145.033L102.674 130.006C102.719 129.933 102.779 129.87 102.849 129.82C102.919 129.77 102.998 129.734 103.081 129.715C103.165 129.695 103.251 129.693 103.336 129.707C103.421 129.721 103.502 129.752 103.575 129.798C103.647 129.843 103.711 129.903 103.76 129.973C103.81 130.043 103.846 130.122 103.865 130.206C103.884 130.29 103.887 130.377 103.873 130.461C103.859 130.546 103.828 130.627 103.783 130.7L94.3844 145.727C94.3257 145.824 94.2421 145.903 94.1424 145.957C94.0426 146.01 93.9304 146.035 93.8175 146.03Z" fill="white"/>
<path d="M98.8311 146.03C98.7083 146.031 98.5879 145.996 98.4847 145.929C98.4103 145.886 98.3455 145.828 98.2943 145.758C98.2432 145.689 98.2067 145.61 98.1872 145.526C98.1678 145.442 98.1657 145.355 98.1811 145.27C98.1965 145.185 98.2291 145.104 98.2768 145.033L107.675 130.006C107.767 129.859 107.913 129.754 108.082 129.715C108.251 129.676 108.429 129.705 108.576 129.798C108.723 129.89 108.827 130.037 108.866 130.206C108.905 130.375 108.875 130.553 108.784 130.7L99.3855 145.727C99.3256 145.82 99.2435 145.896 99.1467 145.949C99.0499 146.002 98.9414 146.03 98.8311 146.03Z" fill="white"/>
<path d="M103.846 146.03C103.723 146.031 103.603 145.996 103.499 145.929C103.425 145.886 103.36 145.828 103.309 145.758C103.258 145.689 103.221 145.61 103.202 145.526C103.182 145.442 103.18 145.355 103.196 145.27C103.211 145.185 103.244 145.104 103.291 145.033L112.69 130.006C112.735 129.933 112.794 129.871 112.864 129.821C112.934 129.771 113.013 129.736 113.096 129.717C113.179 129.698 113.266 129.696 113.35 129.71C113.434 129.724 113.515 129.755 113.587 129.801C113.66 129.846 113.722 129.906 113.772 129.976C113.821 130.046 113.856 130.125 113.875 130.208C113.894 130.292 113.897 130.378 113.883 130.463C113.868 130.547 113.837 130.628 113.792 130.7L104.394 145.727C104.337 145.821 104.256 145.899 104.16 145.952C104.064 146.005 103.956 146.032 103.846 146.03Z" fill="white"/>
<path d="M108.853 146.03C108.734 146.037 108.616 146.01 108.512 145.952C108.408 145.895 108.323 145.809 108.266 145.704C108.208 145.6 108.182 145.482 108.189 145.363C108.196 145.244 108.236 145.129 108.305 145.033L117.697 130.006C117.742 129.933 117.802 129.87 117.872 129.82C117.941 129.77 118.021 129.734 118.104 129.715C118.188 129.695 118.274 129.693 118.359 129.707C118.444 129.721 118.525 129.752 118.598 129.798C118.67 129.843 118.733 129.903 118.783 129.973C118.833 130.043 118.869 130.122 118.888 130.206C118.907 130.29 118.91 130.377 118.896 130.461C118.882 130.546 118.851 130.627 118.805 130.7L109.407 145.727C109.35 145.822 109.268 145.9 109.171 145.953C109.073 146.007 108.964 146.033 108.853 146.03Z" fill="white"/>
<path d="M113.867 146.03C113.744 146.031 113.624 145.996 113.521 145.929C113.446 145.886 113.382 145.828 113.33 145.758C113.279 145.689 113.243 145.61 113.223 145.526C113.204 145.442 113.202 145.355 113.217 145.27C113.233 145.185 113.265 145.104 113.313 145.033L122.711 130.006C122.757 129.933 122.816 129.87 122.886 129.82C122.956 129.77 123.035 129.734 123.118 129.715C123.202 129.695 123.289 129.693 123.373 129.707C123.458 129.721 123.539 129.752 123.612 129.798C123.685 129.843 123.748 129.903 123.798 129.973C123.847 130.043 123.883 130.122 123.902 130.206C123.922 130.29 123.924 130.377 123.91 130.461C123.896 130.546 123.865 130.627 123.82 130.7L114.422 145.727C114.362 145.82 114.28 145.896 114.183 145.949C114.086 146.002 113.978 146.03 113.867 146.03Z" fill="white"/>
<path d="M118.881 146.03C118.758 146.031 118.638 145.996 118.535 145.929C118.46 145.886 118.395 145.828 118.344 145.758C118.293 145.689 118.257 145.61 118.237 145.526C118.218 145.442 118.215 145.355 118.231 145.27C118.246 145.185 118.279 145.104 118.327 145.033L127.725 130.006C127.77 129.933 127.83 129.871 127.899 129.821C127.969 129.771 128.048 129.736 128.131 129.717C128.215 129.698 128.301 129.696 128.385 129.71C128.469 129.724 128.55 129.755 128.622 129.801C128.695 129.846 128.757 129.906 128.807 129.976C128.856 130.046 128.892 130.125 128.911 130.208C128.93 130.292 128.932 130.378 128.918 130.463C128.903 130.547 128.873 130.628 128.827 130.7L119.435 145.727C119.375 145.82 119.293 145.896 119.197 145.949C119.1 146.002 118.991 146.03 118.881 146.03Z" fill="white"/>
<path d="M123.889 146.03C123.769 146.03 123.651 145.995 123.549 145.929C123.475 145.886 123.41 145.828 123.359 145.758C123.308 145.689 123.271 145.61 123.252 145.526C123.232 145.442 123.23 145.355 123.246 145.27C123.261 145.185 123.294 145.104 123.341 145.033L132.739 130.006C132.831 129.859 132.977 129.756 133.146 129.717C133.314 129.679 133.491 129.709 133.637 129.801C133.783 129.893 133.887 130.039 133.925 130.208C133.964 130.377 133.934 130.554 133.842 130.7L124.444 145.727C124.386 145.822 124.304 145.9 124.207 145.953C124.11 146.007 124 146.033 123.889 146.03Z" fill="white"/>
<path d="M128.903 146.03C128.781 146.031 128.66 145.996 128.557 145.929C128.483 145.886 128.418 145.828 128.367 145.758C128.315 145.689 128.279 145.61 128.26 145.526C128.24 145.442 128.238 145.355 128.253 145.27C128.269 145.185 128.301 145.104 128.349 145.033L137.747 130.006C137.793 129.933 137.852 129.87 137.922 129.82C137.992 129.77 138.071 129.734 138.155 129.715C138.238 129.695 138.325 129.693 138.409 129.707C138.494 129.721 138.575 129.752 138.648 129.798C138.721 129.843 138.784 129.903 138.834 129.973C138.884 130.043 138.919 130.122 138.938 130.206C138.958 130.29 138.96 130.377 138.946 130.461C138.932 130.546 138.901 130.627 138.856 130.7L129.458 145.727C129.4 145.822 129.319 145.9 129.221 145.953C129.124 146.007 129.014 146.033 128.903 146.03Z" fill="white"/>
<path d="M133.917 146.03C133.794 146.031 133.674 145.996 133.571 145.929C133.496 145.886 133.431 145.828 133.38 145.758C133.329 145.689 133.293 145.61 133.273 145.526C133.254 145.442 133.252 145.355 133.267 145.27C133.282 145.185 133.315 145.104 133.363 145.033L142.761 130.006C142.853 129.859 142.999 129.754 143.168 129.715C143.337 129.676 143.515 129.705 143.662 129.798C143.809 129.89 143.913 130.037 143.952 130.206C143.991 130.375 143.961 130.553 143.87 130.7L134.471 145.727C134.412 145.82 134.329 145.896 134.233 145.949C134.136 146.002 134.027 146.03 133.917 146.03Z" fill="white"/>
<path d="M9.83273 96.6L9.75714 96.4611C9.72705 96.4163 9.69334 96.3741 9.65635 96.3348L9.53667 96.2338C9.49041 96.2048 9.44197 96.1795 9.39179 96.158L9.24062 96.1138C9.13648 96.0949 9.0298 96.0949 8.92567 96.1138L8.78079 96.158C8.73061 96.1795 8.68217 96.2048 8.63591 96.2338C8.59323 96.264 8.55319 96.2978 8.51623 96.3348C8.47738 96.3724 8.4435 96.4148 8.41545 96.4611C8.38418 96.5038 8.35876 96.5505 8.33986 96.6C8.31931 96.6492 8.30246 96.6998 8.28947 96.7515C8.28632 96.8041 8.28632 96.8568 8.28947 96.9094C8.28645 96.9619 8.28645 97.0146 8.28947 97.0672C8.30341 97.1186 8.32024 97.1692 8.33986 97.2187C8.35876 97.2682 8.38418 97.3149 8.41545 97.3576C8.44206 97.403 8.47613 97.4436 8.51623 97.4776C8.59067 97.5534 8.67941 97.6136 8.77728 97.6546C8.87514 97.6957 8.98019 97.7169 9.08629 97.7169C9.1924 97.7169 9.29744 97.6957 9.39531 97.6546C9.49318 97.6136 9.58191 97.5534 9.65635 97.4776C9.69479 97.442 9.72865 97.4017 9.75714 97.3576L9.83273 97.2187C9.85032 97.1691 9.86504 97.1185 9.87682 97.0672C9.8828 97.0148 9.8828 96.9618 9.87682 96.9094C9.88303 96.8569 9.88303 96.8039 9.87682 96.7515C9.8659 96.7 9.85116 96.6493 9.83273 96.6Z" fill="#C9E5FF"/>
<path d="M17.3732 96.6C17.3539 96.5519 17.3307 96.5054 17.3039 96.4611C17.2738 96.4163 17.2401 96.3741 17.2031 96.3348L17.0834 96.2338C17.0372 96.2048 16.9887 96.1795 16.9385 96.158L16.7937 96.1138C16.6621 96.0879 16.5263 96.0945 16.3979 96.133C16.2695 96.1715 16.1524 96.2407 16.0567 96.3348C16.0217 96.3742 15.9901 96.4164 15.9622 96.4611C15.9309 96.5038 15.9055 96.5505 15.8866 96.6C15.8656 96.6484 15.8508 96.6994 15.8425 96.7515C15.8364 96.8039 15.8364 96.8569 15.8425 96.9094C15.8367 96.9618 15.8367 97.0147 15.8425 97.0672C15.8514 97.1192 15.8662 97.1701 15.8866 97.2187C15.9055 97.2682 15.9309 97.3149 15.9622 97.3576C15.9887 97.4013 16.0204 97.4416 16.0567 97.4776C16.2093 97.6293 16.4149 97.7154 16.6299 97.7175C16.845 97.7161 17.0509 97.6299 17.2031 97.4776C17.2415 97.442 17.2754 97.4017 17.3039 97.3576C17.3307 97.3133 17.3539 97.2668 17.3732 97.2187C17.3956 97.1703 17.4125 97.1194 17.4236 97.0672C17.4295 97.0148 17.4295 96.9618 17.4236 96.9094C17.4298 96.8569 17.4298 96.8039 17.4236 96.7515C17.4132 96.6991 17.3963 96.6481 17.3732 96.6Z" fill="#C9E5FF"/>
<path d="M24.9191 96.6C24.8998 96.5519 24.8766 96.5055 24.8498 96.4611C24.8194 96.4148 24.7835 96.3723 24.7427 96.3349C24.6492 96.2414 24.5343 96.1724 24.408 96.1338C24.2817 96.0953 24.1479 96.0884 24.0183 96.1139L23.8671 96.1581C23.7693 96.201 23.6798 96.2609 23.6026 96.3349C23.5659 96.3728 23.5342 96.4152 23.5081 96.4611C23.4768 96.5038 23.4514 96.5506 23.4325 96.6C23.4115 96.6485 23.3967 96.6994 23.3884 96.7516C23.3823 96.804 23.3823 96.857 23.3884 96.9094C23.3826 96.9619 23.3826 97.0148 23.3884 97.0673C23.3973 97.1193 23.412 97.1701 23.4325 97.2188C23.4514 97.2682 23.4768 97.315 23.5081 97.3577C23.5324 97.4029 23.5644 97.4435 23.6026 97.4776C23.7548 97.63 23.9607 97.7162 24.1758 97.7176C24.2815 97.7174 24.386 97.6961 24.4834 97.6549C24.5807 97.6137 24.6689 97.5534 24.7427 97.4776C24.7833 97.4424 24.8193 97.4021 24.8498 97.3577C24.8766 97.3133 24.8998 97.2669 24.9191 97.2188C24.9423 97.1712 24.9573 97.1199 24.9632 97.0673C24.969 97.0148 24.969 96.9619 24.9632 96.9094C24.9693 96.857 24.9693 96.804 24.9632 96.7516C24.9581 96.6987 24.9431 96.6473 24.9191 96.6Z" fill="#C9E5FF"/>
<path d="M32.4651 96.6C32.4462 96.5505 32.4207 96.5038 32.3895 96.4611C32.3634 96.4134 32.3293 96.3707 32.2887 96.3348L32.169 96.2338C32.1242 96.2061 32.0779 96.1808 32.0304 96.158L31.8792 96.1138C31.7751 96.0949 31.6684 96.0949 31.5643 96.1138L31.4131 96.158C31.365 96.1795 31.3186 96.2048 31.2745 96.2338C31.2287 96.2623 31.1864 96.2962 31.1486 96.3348C31.1116 96.3741 31.0779 96.4163 31.0478 96.4611C31.0185 96.504 30.9952 96.5507 30.9785 96.6C30.9579 96.6492 30.9411 96.6998 30.9281 96.7515C30.925 96.8041 30.925 96.8568 30.9281 96.9094C30.9254 96.9619 30.9254 97.0146 30.9281 97.0672C30.942 97.1186 30.9589 97.1692 30.9785 97.2187C30.9978 97.2668 31.021 97.3133 31.0478 97.3576C31.0763 97.4017 31.1101 97.442 31.1486 97.4776C31.3008 97.6299 31.5067 97.7161 31.7218 97.7175C31.8274 97.7174 31.932 97.6961 32.0294 97.6549C32.1267 97.6137 32.2149 97.5534 32.2887 97.4776C32.3288 97.4436 32.3629 97.403 32.3895 97.3576C32.4207 97.3149 32.4462 97.2682 32.4651 97.2187C32.4855 97.1701 32.5003 97.1192 32.5091 97.0672C32.515 97.0147 32.515 96.9618 32.5091 96.9094C32.5153 96.8569 32.5153 96.8039 32.5091 96.7515C32.5008 96.6993 32.486 96.6484 32.4651 96.6Z" fill="#C9E5FF"/>
<path d="M40.011 96.6C39.9921 96.5505 39.9666 96.5038 39.9354 96.4611C39.9073 96.4148 39.8734 96.3724 39.8346 96.3348C39.7402 96.2408 39.6241 96.1715 39.4967 96.133C39.3693 96.0945 39.2344 96.0879 39.1039 96.1138L38.9527 96.158L38.8141 96.2338L38.6945 96.3348C38.6575 96.3741 38.6238 96.4163 38.5937 96.4611C38.5668 96.5054 38.5437 96.5519 38.5244 96.6C38.5013 96.6482 38.4843 96.6991 38.474 96.7515C38.4709 96.8041 38.4709 96.8568 38.474 96.9094C38.4713 96.9619 38.4713 97.0146 38.474 97.0672C38.4851 97.1195 38.502 97.1703 38.5244 97.2187C38.5437 97.2668 38.5668 97.3133 38.5937 97.3576C38.6222 97.4017 38.656 97.442 38.6945 97.4776C38.8467 97.6299 39.0526 97.7161 39.2677 97.7175C39.3733 97.7174 39.4779 97.6961 39.5753 97.6549C39.6726 97.6137 39.7608 97.5534 39.8346 97.4776C39.8747 97.4436 39.9088 97.403 39.9354 97.3576C39.9666 97.3149 39.9921 97.2682 40.011 97.2187C40.0314 97.1701 40.0462 97.1193 40.055 97.0672C40.0609 97.0148 40.0609 96.9618 40.055 96.9094C40.0612 96.8569 40.0612 96.804 40.055 96.7515C40.0467 96.6994 40.0319 96.6485 40.011 96.6Z" fill="#C9E5FF"/>
<path d="M46.0643 97.2314C46.0832 97.2808 46.1087 97.3276 46.1399 97.3703C46.1684 97.4143 46.2023 97.4546 46.2407 97.4902C46.3929 97.6426 46.5988 97.7287 46.8139 97.7301C46.8641 97.7359 46.9149 97.7359 46.9651 97.7301L47.1163 97.6859C47.1644 97.6645 47.2108 97.6391 47.2548 97.6102C47.3007 97.5816 47.343 97.5477 47.3808 97.5092C47.4209 97.4752 47.455 97.4346 47.4816 97.3892C47.5129 97.3465 47.5383 97.2998 47.5572 97.2503C47.5776 97.2017 47.5924 97.1508 47.6013 97.0988C47.6071 97.0463 47.6071 96.9934 47.6013 96.9409C47.6074 96.8885 47.6074 96.8355 47.6013 96.7831C47.593 96.7309 47.5782 96.68 47.5572 96.6316C47.5383 96.5821 47.5129 96.5354 47.4816 96.4927C47.4536 96.4464 47.4197 96.404 47.3808 96.3664C47.343 96.3278 47.3007 96.2939 47.2548 96.2654C47.2116 96.2351 47.1651 96.2097 47.1163 96.1896L46.9651 96.1454C46.8355 96.1205 46.7019 96.1276 46.5757 96.1661C46.4494 96.2047 46.3345 96.2734 46.2407 96.3664C46.2037 96.4056 46.17 96.4479 46.1399 96.4927C46.1087 96.5354 46.0832 96.5821 46.0643 96.6316C46.0459 96.6809 46.0312 96.7315 46.0202 96.7831C46.0141 96.8355 46.0141 96.8885 46.0202 96.9409C46.0144 96.9934 46.0144 97.0463 46.0202 97.0988C46.0327 97.1437 46.0474 97.1879 46.0643 97.2314Z" fill="#C9E5FF"/>
<path d="M9.83287 104.176L9.75728 104.038C9.72881 103.992 9.69497 103.949 9.6565 103.911C9.50224 103.766 9.29834 103.685 9.08644 103.685C8.87454 103.685 8.67064 103.766 8.51638 103.911C8.47607 103.948 8.44202 103.99 8.41559 104.038C8.38433 104.08 8.3589 104.127 8.34001 104.176C8.31785 104.224 8.30299 104.276 8.29591 104.328C8.28938 104.378 8.28938 104.429 8.29591 104.48C8.29496 104.694 8.37873 104.901 8.52898 105.054C8.56814 105.091 8.61027 105.125 8.65496 105.155L8.79354 105.231L8.93841 105.275H9.09589C9.1503 105.281 9.20525 105.281 9.25966 105.275L9.41084 105.231L9.54942 105.155L9.6691 105.054C9.70603 105.017 9.73975 104.977 9.76988 104.934L9.84547 104.795C9.84547 104.745 9.87697 104.688 9.88956 104.644C9.89581 104.589 9.89581 104.534 9.88956 104.48C9.89563 104.429 9.89563 104.378 9.88956 104.328C9.87543 104.276 9.85645 104.225 9.83287 104.176Z" fill="#C9E5FF"/>
<path d="M17.3723 104.176C17.353 104.128 17.3298 104.082 17.303 104.038C17.2745 103.992 17.2407 103.949 17.2022 103.911C17.1655 103.874 17.1255 103.84 17.0826 103.81C16.9942 103.753 16.896 103.712 16.7928 103.69C16.6613 103.664 16.5255 103.671 16.397 103.709C16.2686 103.748 16.1515 103.817 16.0558 103.911C16.0192 103.949 15.9874 103.992 15.9613 104.038C15.9301 104.08 15.9046 104.127 15.8857 104.176C15.8642 104.225 15.8474 104.276 15.8353 104.328C15.8322 104.378 15.8322 104.429 15.8353 104.48C15.8322 104.534 15.8322 104.589 15.8353 104.644L15.8857 104.795C15.906 104.844 15.9313 104.891 15.9613 104.934C15.9893 104.977 16.0209 105.017 16.0558 105.054C16.095 105.091 16.1371 105.125 16.1818 105.155L16.3204 105.231L16.4715 105.275C16.5239 105.281 16.5767 105.281 16.629 105.275C16.6834 105.281 16.7384 105.281 16.7928 105.275L16.9377 105.231L17.0763 105.155C17.1209 105.125 17.1631 105.091 17.2022 105.054C17.3525 104.901 17.4362 104.694 17.4353 104.48C17.4418 104.429 17.4418 104.378 17.4353 104.328C17.4222 104.275 17.4009 104.223 17.3723 104.176Z" fill="#C9E5FF"/>
<path d="M24.9193 104.176C24.9001 104.128 24.8769 104.082 24.8501 104.038C24.8216 103.992 24.7877 103.949 24.7493 103.911C24.6542 103.818 24.5382 103.75 24.411 103.711C24.2837 103.673 24.1491 103.665 24.0186 103.69C23.9667 103.699 23.9159 103.714 23.8674 103.735C23.8187 103.755 23.7722 103.78 23.7288 103.81C23.6827 103.838 23.6404 103.872 23.6029 103.911C23.5645 103.948 23.5326 103.99 23.5084 104.038C23.4771 104.08 23.4517 104.127 23.4328 104.176C23.4106 104.224 23.3958 104.276 23.3887 104.328C23.3822 104.378 23.3822 104.429 23.3887 104.48C23.3901 104.695 23.4761 104.902 23.628 105.054C23.7018 105.13 23.79 105.19 23.8874 105.231C23.9847 105.273 24.0893 105.294 24.195 105.294C24.2472 105.301 24.3001 105.301 24.3524 105.294L24.5036 105.25L24.6485 105.174L24.7682 105.073C24.8051 105.036 24.8388 104.996 24.869 104.953C24.8945 104.908 24.9177 104.862 24.9382 104.814C24.9608 104.766 24.9757 104.715 24.9823 104.663C24.9885 104.608 24.9885 104.553 24.9823 104.498C24.9884 104.448 24.9884 104.397 24.9823 104.347C24.9752 104.286 24.9536 104.227 24.9193 104.176Z" fill="#C9E5FF"/>
<path d="M32.4651 104.176C32.4462 104.127 32.4208 104.08 32.3895 104.038C32.3631 103.99 32.329 103.948 32.2887 103.911C32.2532 103.873 32.213 103.839 32.169 103.81C32.1256 103.78 32.0792 103.755 32.0304 103.735C31.9819 103.714 31.9312 103.699 31.8793 103.69C31.7487 103.665 31.614 103.672 31.4867 103.71C31.3594 103.749 31.2433 103.818 31.1486 103.911C31.1101 103.949 31.0763 103.992 31.0478 104.038C31.021 104.082 30.9978 104.128 30.9785 104.176C30.957 104.225 30.9401 104.276 30.9281 104.328C30.925 104.378 30.925 104.429 30.9281 104.48C30.925 104.534 30.925 104.589 30.9281 104.644C30.9281 104.688 30.9281 104.745 30.9785 104.795C30.9991 104.843 31.0222 104.889 31.0478 104.934C31.0779 104.977 31.1117 105.017 31.1486 105.054C31.1877 105.091 31.2299 105.125 31.2746 105.155L31.4131 105.231L31.5643 105.275C31.6678 105.3 31.7758 105.3 31.8793 105.275L32.0304 105.231L32.169 105.155L32.2887 105.054C32.3271 105.018 32.361 104.978 32.3895 104.934C32.4195 104.891 32.4448 104.844 32.4651 104.795C32.4847 104.746 32.4995 104.696 32.5092 104.644C32.5154 104.589 32.5154 104.534 32.5092 104.48C32.5152 104.429 32.5152 104.378 32.5092 104.328C32.5021 104.276 32.4872 104.225 32.4651 104.176Z" fill="#C9E5FF"/>
<path d="M40.011 104.176C39.9921 104.127 39.9666 104.08 39.9354 104.038C39.9109 103.989 39.8766 103.946 39.8346 103.911C39.799 103.873 39.7588 103.839 39.7149 103.81C39.6715 103.78 39.625 103.755 39.5763 103.735C39.526 103.713 39.473 103.698 39.4188 103.69C39.2893 103.665 39.1556 103.673 39.0294 103.711C38.9032 103.75 38.7882 103.818 38.6945 103.911C38.656 103.949 38.6222 103.992 38.5937 104.038C38.5644 104.081 38.5411 104.127 38.5244 104.176C38.5001 104.224 38.4832 104.275 38.474 104.328C38.471 104.378 38.471 104.429 38.474 104.48C38.4709 104.534 38.4709 104.589 38.474 104.644C38.486 104.696 38.5029 104.746 38.5244 104.795C38.5424 104.844 38.5656 104.89 38.5937 104.934C38.6238 104.977 38.6575 105.017 38.6945 105.054L38.8141 105.155L38.9527 105.231L39.1039 105.275C39.1583 105.281 39.2133 105.281 39.2677 105.275C39.3179 105.282 39.3687 105.282 39.4188 105.275L39.5763 105.231L39.7149 105.155L39.8346 105.054C39.9866 104.902 40.0725 104.695 40.0739 104.48C40.0805 104.429 40.0805 104.378 40.0739 104.328C40.0609 104.275 40.0397 104.223 40.011 104.176Z" fill="#C9E5FF"/>
<path d="M47.5571 104.176C47.5382 104.127 47.5128 104.08 47.4815 104.038C47.4551 103.99 47.4211 103.948 47.3808 103.911C47.2863 103.817 47.1703 103.748 47.0429 103.709C46.9155 103.671 46.7806 103.664 46.6501 103.69C46.5984 103.7 46.5477 103.715 46.4989 103.735C46.4502 103.755 46.4037 103.78 46.3603 103.81C46.3164 103.839 46.2762 103.873 46.2406 103.911C46.2022 103.949 46.1683 103.992 46.1399 104.038C46.1086 104.08 46.0832 104.127 46.0643 104.176C46.045 104.226 46.0302 104.276 46.0202 104.328C46.0141 104.378 46.0141 104.429 46.0202 104.48C46.0218 104.695 46.108 104.901 46.26 105.054C46.412 105.206 46.6178 105.292 46.8328 105.294H46.9839L47.1351 105.25L47.2737 105.174C47.3195 105.145 47.3618 105.112 47.3997 105.073C47.4381 105.037 47.472 104.997 47.5004 104.953C47.5305 104.91 47.5558 104.863 47.576 104.814C47.5957 104.765 47.6104 104.714 47.6201 104.663C47.6263 104.608 47.6263 104.553 47.6201 104.498C47.6262 104.448 47.6262 104.397 47.6201 104.347C47.6091 104.287 47.5878 104.229 47.5571 104.176Z" fill="#C9E5FF"/>
<path d="M9.83292 111.715L9.75733 111.576C9.72719 111.533 9.69348 111.493 9.65654 111.456C9.6215 111.417 9.58122 111.383 9.53686 111.355C9.49346 111.325 9.44701 111.3 9.39828 111.279C9.34975 111.259 9.29902 111.244 9.24711 111.235C9.14085 111.216 9.03211 111.216 8.92586 111.235C8.87394 111.244 8.82322 111.259 8.77468 111.279C8.72596 111.3 8.67951 111.325 8.6361 111.355C8.59174 111.383 8.55147 111.417 8.51642 111.456C8.47798 111.492 8.44413 111.532 8.41564 111.576C8.38563 111.62 8.3603 111.666 8.34005 111.715C8.31857 111.765 8.30375 111.819 8.29596 111.873C8.28943 111.923 8.28943 111.974 8.29596 112.024C8.28937 112.077 8.28937 112.13 8.29596 112.182C8.30477 112.236 8.31956 112.289 8.34005 112.34C8.36167 112.388 8.38694 112.435 8.41564 112.479C8.44413 112.523 8.47798 112.563 8.51642 112.599C8.66882 112.746 8.87158 112.83 9.08333 112.833H9.24711C9.29923 112.821 9.34994 112.805 9.39828 112.782L9.53686 112.713L9.65654 112.612C9.69348 112.575 9.72719 112.534 9.75733 112.492L9.83292 112.353C9.85053 112.301 9.86525 112.248 9.87701 112.195C9.8836 112.142 9.8836 112.089 9.87701 112.037C9.88354 111.987 9.88354 111.936 9.87701 111.885C9.86668 111.828 9.85194 111.771 9.83292 111.715Z" fill="#C9E5FF"/>
<path d="M17.3725 111.715C17.3519 111.667 17.3288 111.621 17.3032 111.576C17.2731 111.533 17.2394 111.493 17.2024 111.456C17.1674 111.417 17.1271 111.383 17.0828 111.355C17.0393 111.325 16.9929 111.3 16.9442 111.279C16.8954 111.26 16.8447 111.245 16.793 111.235C16.6867 111.216 16.578 111.216 16.4717 111.235C16.4217 111.243 16.3729 111.258 16.3269 111.279C16.2755 111.298 16.2268 111.324 16.182 111.355C16.1356 111.383 16.0932 111.417 16.056 111.456C16.0211 111.493 15.9895 111.533 15.9615 111.576C15.9315 111.62 15.9062 111.666 15.8859 111.715C15.8654 111.766 15.8486 111.819 15.8355 111.873C15.8322 111.923 15.8322 111.974 15.8355 112.024C15.8323 112.077 15.8323 112.13 15.8355 112.182C15.8495 112.236 15.8663 112.288 15.8859 112.34C15.9076 112.388 15.9328 112.435 15.9615 112.479C15.9895 112.522 16.0211 112.562 16.056 112.599L16.182 112.7L16.3269 112.769C16.3727 112.793 16.4214 112.81 16.4717 112.82H16.6292C16.843 112.818 17.0481 112.735 17.2024 112.586C17.2394 112.549 17.2731 112.509 17.3032 112.466L17.3725 112.327C17.395 112.277 17.4119 112.224 17.4229 112.17C17.4295 112.117 17.4295 112.064 17.4229 112.012C17.4294 111.961 17.4294 111.911 17.4229 111.86C17.4121 111.81 17.3951 111.761 17.3725 111.715Z" fill="#C9E5FF"/>
<path d="M24.9194 111.715C24.8988 111.668 24.8757 111.621 24.8501 111.576C24.82 111.533 24.7862 111.493 24.7493 111.456C24.7143 111.417 24.674 111.383 24.6296 111.355C24.584 111.325 24.5355 111.3 24.4847 111.279C24.4364 111.258 24.3856 111.244 24.3336 111.235C24.2294 111.216 24.1228 111.216 24.0186 111.235C23.9667 111.244 23.916 111.259 23.8674 111.279C23.8187 111.3 23.7723 111.325 23.7289 111.355C23.6813 111.381 23.6387 111.415 23.6029 111.456C23.5661 111.492 23.5344 111.532 23.5084 111.576C23.4784 111.62 23.4531 111.666 23.4328 111.715C23.4123 111.766 23.3954 111.819 23.3824 111.873C23.379 111.923 23.379 111.974 23.3824 112.024C23.3791 112.077 23.3791 112.13 23.3824 112.182C23.3963 112.236 23.4132 112.288 23.4328 112.34C23.4544 112.388 23.4797 112.435 23.5084 112.479C23.5344 112.523 23.5661 112.563 23.6029 112.599C23.642 112.636 23.6842 112.67 23.7289 112.7L23.8674 112.769C23.9158 112.792 23.9665 112.809 24.0186 112.82H24.1761H24.3336C24.3857 112.809 24.4364 112.792 24.4847 112.769C24.5327 112.75 24.5791 112.727 24.6233 112.7C24.6673 112.671 24.7075 112.638 24.743 112.599C24.7819 112.562 24.8178 112.522 24.8501 112.479L24.9194 112.34C24.9428 112.29 24.9577 112.237 24.9635 112.182C24.9701 112.13 24.9701 112.077 24.9635 112.024C24.97 111.974 24.97 111.923 24.9635 111.873C24.9584 111.818 24.9435 111.765 24.9194 111.715Z" fill="#C9E5FF"/>
<path d="M32.4653 111.715C32.4451 111.666 32.4198 111.62 32.3897 111.576C32.3638 111.532 32.332 111.492 32.2953 111.456C32.2581 111.417 32.2157 111.383 32.1693 111.355C32.1259 111.325 32.0794 111.3 32.0307 111.279C31.9822 111.259 31.9314 111.244 31.8795 111.235C31.7754 111.216 31.6687 111.216 31.5646 111.235C31.5125 111.244 31.4617 111.258 31.4134 111.279C31.364 111.298 31.3174 111.324 31.2748 111.355C31.2263 111.38 31.1834 111.414 31.1488 111.456C31.1119 111.493 31.0782 111.533 31.0481 111.576C31.02 111.62 30.9968 111.666 30.9788 111.715C30.9582 111.766 30.9414 111.819 30.9284 111.873C30.9249 111.923 30.9249 111.974 30.9284 112.024C30.9249 112.077 30.9249 112.13 30.9284 112.182C30.9423 112.236 30.9591 112.288 30.9788 112.34C30.998 112.388 31.0212 112.435 31.0481 112.479C31.0782 112.522 31.1119 112.562 31.1488 112.599C31.1867 112.638 31.229 112.671 31.2748 112.7L31.4134 112.769C31.4615 112.793 31.5123 112.81 31.5646 112.82H31.7221C31.9342 112.819 32.1377 112.735 32.289 112.586C32.3274 112.551 32.3613 112.51 32.3897 112.466C32.4184 112.422 32.4437 112.376 32.4653 112.327C32.4858 112.277 32.5006 112.224 32.5094 112.17C32.516 112.117 32.516 112.064 32.5094 112.012C32.516 111.962 32.516 111.911 32.5094 111.86C32.5006 111.81 32.4858 111.762 32.4653 111.715Z" fill="#C9E5FF"/>
<path d="M40.0112 111.715C39.9909 111.666 39.9656 111.62 39.9356 111.576C39.9071 111.532 39.8732 111.492 39.8348 111.456C39.8012 111.416 39.7607 111.381 39.7151 111.355C39.6717 111.325 39.6253 111.3 39.5765 111.279C39.5262 111.258 39.4733 111.243 39.4191 111.235C39.3149 111.216 39.2083 111.216 39.1041 111.235C39.0524 111.245 39.0018 111.26 38.9529 111.279L38.8144 111.355C38.7688 111.381 38.7282 111.416 38.6947 111.456C38.6577 111.493 38.624 111.533 38.5939 111.576C38.5683 111.621 38.5452 111.668 38.5246 111.715C38.501 111.765 38.484 111.818 38.4742 111.873C38.4708 111.923 38.4708 111.974 38.4742 112.024C38.4709 112.077 38.4709 112.13 38.4742 112.182C38.4853 112.237 38.5021 112.289 38.5246 112.34L38.5939 112.479C38.624 112.522 38.6577 112.562 38.6947 112.599L38.8144 112.7L38.9529 112.769C39.0016 112.791 39.0523 112.808 39.1041 112.82H39.2679H39.4191C39.4735 112.81 39.5265 112.793 39.5765 112.769L39.7151 112.7L39.8348 112.599C39.8732 112.563 39.9071 112.523 39.9356 112.479C39.9643 112.435 39.9896 112.388 40.0112 112.34C40.0317 112.289 40.0465 112.236 40.0553 112.182C40.0619 112.13 40.0619 112.077 40.0553 112.024C40.0618 111.974 40.0618 111.923 40.0553 111.873C40.0475 111.819 40.0327 111.766 40.0112 111.715Z" fill="#C9E5FF"/>
<path d="M47.5575 111.715C47.5373 111.666 47.5119 111.62 47.4819 111.576C47.4534 111.532 47.4196 111.492 47.3812 111.456C47.3466 111.414 47.3037 111.38 47.2552 111.355C47.2134 111.323 47.1666 111.297 47.1166 111.279C47.0687 111.257 47.0177 111.242 46.9654 111.235C46.8613 111.216 46.7546 111.216 46.6505 111.235C46.5986 111.244 46.5478 111.259 46.4993 111.279C46.4506 111.3 46.4041 111.325 46.3607 111.355C46.3151 111.381 46.2746 111.416 46.241 111.456C46.2041 111.493 46.1704 111.533 46.1402 111.576C46.1102 111.62 46.0849 111.666 46.0647 111.715C46.0462 111.767 46.0315 111.819 46.0206 111.873C46.014 111.923 46.014 111.974 46.0206 112.024C46.014 112.077 46.014 112.13 46.0206 112.182C46.0323 112.236 46.047 112.288 46.0647 112.34C46.0863 112.388 46.1116 112.435 46.1402 112.479C46.1704 112.522 46.2041 112.562 46.241 112.599L46.3607 112.7L46.4993 112.769C46.5476 112.792 46.5983 112.809 46.6505 112.82H46.8142C47.0261 112.818 47.2291 112.734 47.3812 112.586C47.4196 112.551 47.4534 112.51 47.4819 112.466C47.5106 112.422 47.5359 112.376 47.5575 112.327C47.578 112.277 47.5928 112.224 47.6016 112.17C47.6082 112.117 47.6082 112.064 47.6016 112.012C47.6081 111.962 47.6081 111.911 47.6016 111.86C47.5928 111.81 47.578 111.762 47.5575 111.715Z" fill="#C9E5FF"/>
<path d="M9.83278 119.279L9.75719 119.14C9.72706 119.097 9.69334 119.057 9.65641 119.02C9.50215 118.874 9.29825 118.793 9.08635 118.793C8.87445 118.793 8.67054 118.874 8.51629 119.02C8.47785 119.056 8.44399 119.096 8.4155 119.14C8.3855 119.184 8.36016 119.23 8.33991 119.279C8.31947 119.328 8.30467 119.378 8.29582 119.43C8.279 119.535 8.279 119.642 8.29582 119.746C8.30414 119.798 8.31895 119.849 8.33991 119.898C8.35881 119.947 8.38423 119.994 8.4155 120.037C8.44193 120.084 8.47598 120.127 8.51629 120.163C8.59073 120.239 8.67946 120.299 8.77733 120.34C8.8752 120.381 8.98024 120.402 9.08635 120.402C9.19245 120.402 9.2975 120.381 9.39536 120.34C9.49323 120.299 9.58197 120.239 9.65641 120.163C9.69488 120.125 9.72871 120.083 9.75719 120.037L9.83278 119.898C9.85121 119.848 9.86595 119.798 9.87688 119.746C9.8937 119.642 9.8937 119.535 9.87688 119.43C9.86509 119.379 9.85037 119.329 9.83278 119.279Z" fill="#C9E5FF"/>
<path d="M17.3727 119.279L17.3034 119.14C17.2733 119.097 17.2396 119.057 17.2027 119.02C17.0474 118.874 16.8424 118.793 16.6295 118.793C16.4165 118.793 16.2115 118.874 16.0562 119.02C16.0213 119.057 15.9897 119.097 15.9618 119.14C15.9318 119.184 15.9064 119.23 15.8862 119.279C15.8657 119.328 15.8509 119.378 15.8421 119.43C15.817 119.534 15.817 119.642 15.8421 119.746C15.8504 119.798 15.8652 119.849 15.8862 119.898C15.9051 119.947 15.9305 119.994 15.9618 120.037C15.9879 120.082 16.0196 120.125 16.0562 120.163C16.2088 120.315 16.4145 120.401 16.6295 120.403C16.8445 120.401 17.0504 120.315 17.2027 120.163C17.2411 120.125 17.275 120.083 17.3034 120.037C17.3303 119.992 17.3534 119.946 17.3727 119.898C17.3959 119.849 17.4128 119.799 17.4231 119.746C17.44 119.642 17.44 119.535 17.4231 119.43C17.412 119.378 17.3951 119.327 17.3727 119.279Z" fill="#C9E5FF"/>
<path d="M24.9186 119.279L24.8493 119.14C24.8192 119.097 24.7855 119.057 24.7486 119.02C24.6545 118.926 24.5385 118.856 24.411 118.817C24.2835 118.779 24.1484 118.773 24.0179 118.799C23.966 118.808 23.9152 118.823 23.8667 118.843C23.818 118.864 23.7715 118.889 23.7281 118.919C23.682 118.947 23.6396 118.981 23.6021 119.02C23.5654 119.056 23.5336 119.096 23.5077 119.14C23.4777 119.184 23.4523 119.23 23.4321 119.279C23.4116 119.328 23.3968 119.378 23.388 119.43C23.3629 119.534 23.3629 119.642 23.388 119.746C23.3963 119.798 23.4111 119.849 23.4321 119.898C23.451 119.947 23.4764 119.994 23.5077 120.037C23.5319 120.084 23.5638 120.126 23.6021 120.163C23.7544 120.315 23.9603 120.401 24.1754 120.403C24.2278 120.406 24.2804 120.406 24.3328 120.403L24.484 120.359C24.5322 120.337 24.5785 120.312 24.6226 120.283C24.6665 120.254 24.7067 120.22 24.7423 120.182C24.7828 120.144 24.8187 120.102 24.8493 120.055C24.8762 120.011 24.8993 119.965 24.9186 119.917C24.9427 119.869 24.9576 119.818 24.9627 119.765C24.9878 119.661 24.9878 119.553 24.9627 119.449C24.9591 119.39 24.9441 119.332 24.9186 119.279Z" fill="#C9E5FF"/>
<path d="M32.4656 119.279C32.4453 119.23 32.42 119.184 32.39 119.14C32.364 119.096 32.3323 119.056 32.2955 119.02C32.1402 118.874 31.9353 118.793 31.7223 118.793C31.5094 118.793 31.3044 118.874 31.1491 119.02C31.1122 119.057 31.0785 119.097 31.0483 119.14L30.979 119.279C30.9594 119.328 30.9426 119.379 30.9286 119.43C30.9118 119.535 30.9118 119.642 30.9286 119.746C30.9416 119.798 30.9585 119.848 30.979 119.898C30.9983 119.946 31.0215 119.992 31.0483 120.037C31.0768 120.083 31.1106 120.125 31.1491 120.163C31.3013 120.315 31.5072 120.401 31.7223 120.403C31.828 120.403 31.9326 120.381 32.0299 120.34C32.1273 120.299 32.2154 120.239 32.2892 120.163C32.3295 120.127 32.3636 120.084 32.39 120.037C32.4213 119.994 32.4467 119.947 32.4656 119.898C32.4866 119.849 32.5014 119.798 32.5097 119.746C32.5348 119.642 32.5348 119.534 32.5097 119.43C32.5008 119.378 32.486 119.328 32.4656 119.279Z" fill="#C9E5FF"/>
<path d="M40.0109 119.279C39.9906 119.23 39.9653 119.183 39.9353 119.14C39.875 119.054 39.8004 118.979 39.7148 118.919C39.6714 118.889 39.625 118.864 39.5762 118.843C39.5259 118.822 39.473 118.807 39.4188 118.799C39.2892 118.772 39.1551 118.779 39.0286 118.817C38.9021 118.856 38.7872 118.926 38.6944 119.02C38.6574 119.057 38.6237 119.097 38.5936 119.14C38.566 119.185 38.5408 119.231 38.518 119.279C38.5004 119.329 38.4857 119.379 38.4739 119.43C38.4488 119.534 38.4488 119.642 38.4739 119.746C38.4848 119.798 38.4996 119.848 38.518 119.898C38.5394 119.946 38.5647 119.992 38.5936 120.037C38.6221 120.082 38.6559 120.125 38.6944 120.163C38.8466 120.315 39.0525 120.401 39.2676 120.403H39.4188L39.5762 120.359L39.7148 120.283L39.8345 120.182C39.8748 120.146 39.9089 120.103 39.9353 120.055C39.9666 120.013 39.992 119.966 40.0109 119.917C40.0318 119.868 40.0467 119.817 40.055 119.765C40.0801 119.661 40.0801 119.553 40.055 119.449C40.0476 119.391 40.0328 119.334 40.0109 119.279Z" fill="#C9E5FF"/>
<path d="M47.5578 119.279C47.5375 119.23 47.5122 119.184 47.4822 119.14C47.4537 119.096 47.4198 119.056 47.3814 119.02C47.2271 118.874 47.0232 118.793 46.8113 118.793C46.5994 118.793 46.3955 118.874 46.2413 119.02C46.2043 119.057 46.1706 119.097 46.1405 119.14C46.1105 119.184 46.0851 119.23 46.0649 119.279C46.0473 119.329 46.0326 119.379 46.0208 119.43C45.9957 119.534 45.9957 119.642 46.0208 119.746C46.0317 119.798 46.0465 119.848 46.0649 119.898C46.0838 119.947 46.1092 119.994 46.1405 120.037C46.169 120.083 46.2028 120.125 46.2413 120.163C46.3157 120.239 46.4044 120.299 46.5023 120.34C46.6002 120.381 46.7052 120.402 46.8113 120.402C46.9174 120.402 47.0225 120.381 47.1203 120.34C47.2182 120.299 47.3069 120.239 47.3814 120.163C47.4217 120.127 47.4557 120.084 47.4822 120.037C47.5134 119.994 47.5389 119.947 47.5578 119.898C47.5787 119.849 47.5935 119.798 47.6018 119.746C47.627 119.642 47.627 119.534 47.6018 119.43C47.593 119.378 47.5782 119.328 47.5578 119.279Z" fill="#C9E5FF"/>
<path d="M9.83292 126.843L9.75733 126.704C9.72884 126.66 9.69498 126.62 9.65654 126.584C9.50229 126.438 9.29838 126.357 9.08648 126.357C8.87458 126.357 8.67068 126.438 8.51642 126.584C8.47632 126.618 8.44225 126.658 8.41564 126.704C8.38437 126.747 8.35895 126.793 8.34005 126.843C8.3196 126.891 8.30481 126.942 8.29596 126.994C8.28937 127.047 8.28937 127.1 8.29596 127.152C8.29501 127.367 8.37877 127.573 8.52902 127.727C8.5669 127.763 8.60922 127.795 8.655 127.821C8.69682 127.854 8.74361 127.88 8.79358 127.897C8.83963 127.918 8.88837 127.933 8.93846 127.941H9.09593C9.15035 127.948 9.20529 127.948 9.25971 127.941C9.31162 127.932 9.36235 127.918 9.41088 127.897C9.45961 127.877 9.50606 127.851 9.54946 127.821C9.59232 127.794 9.6324 127.762 9.66914 127.727C9.81939 127.573 9.90316 127.367 9.90221 127.152C9.90879 127.1 9.90879 127.047 9.90221 126.994C9.8822 126.942 9.85906 126.892 9.83292 126.843Z" fill="#C9E5FF"/>
<path d="M17.3724 126.843C17.3531 126.795 17.33 126.748 17.3031 126.704C17.2747 126.66 17.2408 126.619 17.2024 126.584C17.1657 126.545 17.1256 126.509 17.0827 126.477L16.9378 126.407C16.8925 126.384 16.8434 126.369 16.7929 126.363C16.6614 126.336 16.5253 126.342 16.3967 126.38C16.2681 126.419 16.151 126.489 16.0559 126.584C16.0197 126.62 15.988 126.66 15.9615 126.704C15.9302 126.747 15.9048 126.793 15.8859 126.843C15.8662 126.892 15.8494 126.943 15.8355 126.994C15.8322 127.047 15.8322 127.1 15.8355 127.152C15.8372 127.366 15.9205 127.572 16.0685 127.727C16.2236 127.874 16.4282 127.957 16.6417 127.96C16.6962 127.966 16.7511 127.966 16.8055 127.96C16.9087 127.939 17.0069 127.898 17.0953 127.84C17.1381 127.813 17.1782 127.781 17.215 127.746C17.3652 127.592 17.449 127.386 17.448 127.171C17.4546 127.119 17.4546 127.066 17.448 127.013C17.4304 126.953 17.405 126.896 17.3724 126.843Z" fill="#C9E5FF"/>
<path d="M24.9193 126.843C24.9 126.795 24.8768 126.748 24.85 126.704C24.8215 126.66 24.7877 126.62 24.7492 126.584C24.7126 126.545 24.6725 126.509 24.6296 126.477L24.4847 126.407C24.4375 126.383 24.3862 126.368 24.3335 126.363C24.203 126.336 24.0679 126.343 23.9404 126.381C23.8129 126.42 23.6969 126.489 23.6028 126.584C23.5646 126.618 23.5326 126.659 23.5083 126.704C23.4771 126.747 23.4516 126.793 23.4327 126.843C23.4131 126.892 23.3963 126.943 23.3823 126.994C23.3791 127.047 23.3791 127.1 23.3823 127.152C23.384 127.366 23.4674 127.572 23.6154 127.727C23.6543 127.762 23.6965 127.794 23.7414 127.821C23.7848 127.851 23.8312 127.877 23.88 127.897C23.9285 127.918 23.9792 127.932 24.0311 127.941C24.0835 127.948 24.1363 127.948 24.1886 127.941C24.2409 127.948 24.2938 127.948 24.3461 127.941C24.398 127.932 24.4487 127.918 24.4973 127.897C24.5466 127.878 24.5932 127.853 24.6359 127.821C24.6809 127.797 24.7214 127.765 24.7555 127.727C24.9075 127.574 24.9935 127.368 24.9949 127.152C25.0015 127.1 25.0015 127.047 24.9949 126.994C24.9793 126.94 24.9536 126.888 24.9193 126.843Z" fill="#C9E5FF"/>
<path d="M32.4652 126.843C32.4463 126.793 32.4209 126.747 32.3896 126.704C32.363 126.658 32.3289 126.618 32.2888 126.584C32.196 126.489 32.0811 126.42 31.9546 126.381C31.8281 126.343 31.694 126.336 31.5644 126.363C31.5117 126.368 31.4604 126.383 31.4133 126.407L31.2747 126.477C31.2272 126.505 31.1847 126.542 31.1487 126.584C31.1103 126.62 31.0764 126.66 31.0479 126.704C31.0211 126.748 30.9979 126.795 30.9786 126.843C30.959 126.892 30.9422 126.943 30.9282 126.994C30.925 127.047 30.925 127.1 30.9282 127.152C30.9265 127.259 30.9462 127.365 30.9862 127.463C31.0261 127.562 31.0854 127.652 31.1606 127.727C31.2358 127.803 31.3254 127.862 31.424 127.902C31.5226 127.942 31.6282 127.962 31.7345 127.96C31.9484 127.96 32.1534 127.875 32.3046 127.724C32.4558 127.572 32.5408 127.366 32.5408 127.152C32.5474 127.1 32.5474 127.047 32.5408 126.994C32.5219 126.941 32.4965 126.89 32.4652 126.843Z" fill="#C9E5FF"/>
<path d="M40.0112 126.843C39.9923 126.793 39.9669 126.747 39.9356 126.704C39.909 126.658 39.875 126.618 39.8349 126.584C39.6806 126.438 39.4767 126.357 39.2648 126.357C39.0529 126.357 38.849 126.438 38.6947 126.584C38.6563 126.62 38.6224 126.66 38.594 126.704C38.5647 126.747 38.5414 126.794 38.5247 126.843C38.5023 126.891 38.4854 126.942 38.4743 126.994C38.4708 127.047 38.4708 127.1 38.4743 127.152C38.4757 127.368 38.5617 127.574 38.7136 127.727C38.7491 127.764 38.7893 127.795 38.8333 127.821L38.9719 127.897C39.0207 127.917 39.0714 127.932 39.1231 127.941C39.1775 127.948 39.2324 127.948 39.2868 127.941C39.337 127.948 39.3878 127.948 39.438 127.941C39.4922 127.934 39.5451 127.919 39.5955 127.897C39.6442 127.877 39.6907 127.851 39.7341 127.821C39.778 127.795 39.8183 127.764 39.8538 127.727C40.0057 127.574 40.0917 127.368 40.0931 127.152C40.0997 127.1 40.0997 127.047 40.0931 126.994C40.0723 126.941 40.0448 126.89 40.0112 126.843Z" fill="#C9E5FF"/>
<path d="M47.5575 126.843C47.5386 126.793 47.5132 126.747 47.4819 126.704C47.4553 126.658 47.4213 126.618 47.3812 126.584C47.3452 126.542 47.3026 126.505 47.2552 126.477L47.1166 126.407C47.0698 126.382 47.0183 126.367 46.9654 126.363C46.8359 126.336 46.7017 126.343 46.5752 126.381C46.4487 126.42 46.3339 126.489 46.241 126.584C46.2026 126.62 46.1687 126.66 46.1402 126.704C46.109 126.747 46.0836 126.793 46.0647 126.843C46.0471 126.892 46.0323 126.943 46.0206 126.994C46.014 127.047 46.014 127.1 46.0206 127.152C46.022 127.368 46.108 127.574 46.2599 127.727C46.4143 127.875 46.6193 127.959 46.8331 127.96C46.8833 127.967 46.9341 127.967 46.9843 127.96C47.0366 127.953 47.0876 127.938 47.1355 127.916C47.1849 127.897 47.2315 127.872 47.2741 127.84C47.3211 127.816 47.3636 127.784 47.4001 127.746C47.552 127.593 47.638 127.387 47.6394 127.171C47.646 127.119 47.646 127.066 47.6394 127.013C47.6201 126.953 47.5925 126.895 47.5575 126.843Z" fill="#C9E5FF"/>
<path d="M119.908 2.8664C113.924 4.54585 106.781 8.72554 105.124 17.2238C103.468 25.7221 114.132 40.8624 110.919 46.57C110 48.2116 108.368 48.9692 106.51 49.2155C106.51 49.2155 110.806 54.5379 117.848 51.2295C117.198 52.5682 116.102 53.6377 114.749 54.2538C119.102 54.4282 123.381 53.09 126.862 50.4656C128.602 49.1395 130.062 47.4806 131.158 45.5851C133.938 44.8418 136.564 43.6082 138.912 41.9421C141.572 42.7144 144.417 42.5381 146.962 41.4433C146.102 42.3883 144.975 43.0488 143.731 43.3374C145.621 43.2932 147.599 43.5142 149.45 43.0406C151.331 42.6219 153.012 41.5702 154.213 40.0606C155.353 38.5011 155.712 36.4933 155.787 34.555C155.945 30.6531 154.855 26.8207 153.312 23.2282C150.288 16.1884 144.821 3.83872 136.821 1.69836C128.821 -0.441989 119.908 2.8664 119.908 2.8664Z" fill="#12122A"/>
<path d="M106.857 18.7707C107.119 16.4178 107.844 14.1403 108.989 12.0695C110.134 9.99869 111.676 8.17553 113.527 6.70518C116.048 4.65564 119.053 3.29144 122.253 2.74404C125.452 2.19664 128.738 2.4845 131.795 3.57988C138.094 5.86545 143.599 11.9203 145.256 19.0043C146.912 26.0883 144.418 33.8416 139.013 37.251C135.341 39.5681 130.717 39.8396 126.321 38.9746C116.721 37.0868 105.591 31.7517 106.857 18.7707Z" fill="#12122A"/>
<path d="M136.651 48.2747C140.743 47.7204 144.862 47.3958 148.99 47.3024C151.126 47.3024 161.658 65.3155 168.385 79.3951L175.692 98.3363L138.314 108.792L126.711 86.498C126.711 86.498 115.807 83.9157 119.461 74.0916C124.122 61.5651 122.642 53.5088 136.651 48.2747Z" fill="#FFD600"/>
<path d="M107.184 84.9512C106.352 87.1421 105.823 88.5563 105.823 88.5563L98.7432 104.972C98.7432 104.972 99.329 107.295 104.696 108.76C110.768 110.44 120.154 96.7137 125.13 85.9677C130.106 75.2217 109.792 78.0756 107.184 84.9512Z" fill="#6388F7"/>
<path d="M121.143 97.0925C121.143 97.0925 125.155 89.8759 126.711 86.5107C131.694 75.7773 129.678 49.8153 129.678 49.8153C127.706 50.8444 119.272 57.095 117.08 60.7444C115.398 63.5161 109.811 78.0755 107.203 84.9512C111.625 88.9415 116.532 93.2853 121.143 97.0925Z" fill="#FFD600"/>
<path d="M162.118 48.9819C166.603 50.4277 182.319 72.008 182.319 72.008C182.319 72.008 186.785 83.2907 181.059 84.8186C175.334 86.3465 159.555 68.0998 159.555 68.0998C159.555 68.0998 157.633 47.536 162.118 48.9819Z" fill="#6388F7"/>
<path d="M165.211 74.1673C167.101 76.0614 169.23 78.1008 171.378 79.9002C172.48 74.0474 176.505 68.3334 176.505 68.3334L169.942 66.9255L165.211 74.1673Z" fill="#4763D5"/>
<path d="M179.522 64.7536C173.261 57.1771 160.625 45.9513 157.822 45.0484C153.343 43.6026 140.267 46.2102 140.267 46.2102L156.669 65.6628C156.669 65.6628 162.786 74.281 168.385 79.4077C168.385 79.3951 176.014 68.4345 179.522 64.7536Z" fill="#FFD600"/>
<path d="M141.923 48.6157L140.607 29.6745C140.607 29.6745 148.304 30.3059 147.397 24.371C146.591 19.0738 140.878 20.0966 138.793 23.2093C138.793 23.2093 139.101 3.93346 123.159 6.44001C107.216 8.94656 112.45 30.3753 113.71 35.5715C115.902 44.7201 123.518 47.4413 128.349 46.7216L129.395 52.4039C129.395 52.4039 130.251 57.3918 134.887 56.4195C141.06 55.0999 141.923 48.6157 141.923 48.6157Z" fill="#6388F7"/>
<path d="M113.804 29.8071C113.804 29.8071 106.245 27.1806 106.61 33.5953C107.033 40.6288 115.719 36.3166 115.719 36.3166L113.804 29.8071Z" fill="#6388F7"/>
<path d="M128.04 25.7916C128.169 26.1083 128.202 26.4564 128.134 26.7918C128.066 27.1272 127.9 27.4348 127.657 27.6756C127.415 27.9165 127.106 28.0798 126.771 28.1449C126.436 28.21 126.089 28.174 125.774 28.0415C125.459 27.9089 125.191 27.6857 125.003 27.4001C124.814 27.1146 124.715 26.7795 124.717 26.4372C124.719 26.095 124.822 25.761 125.013 25.4774C125.204 25.1939 125.475 24.9737 125.791 24.8445C126.215 24.6733 126.689 24.6767 127.11 24.8541C127.531 25.0314 127.866 25.3684 128.04 25.7916Z" fill="#12122A"/>
<path d="M119.782 27.7804C119.911 28.097 119.943 28.4448 119.875 28.7798C119.807 29.1147 119.641 29.4219 119.398 29.6625C119.156 29.903 118.848 30.0662 118.513 30.1314C118.178 30.1966 117.832 30.1609 117.517 30.0287C117.202 29.8966 116.934 29.674 116.745 29.389C116.557 29.1041 116.457 28.7695 116.458 28.4276C116.459 28.0857 116.561 27.7518 116.752 27.468C116.942 27.1843 117.212 26.9634 117.527 26.8333C117.952 26.6601 118.427 26.6625 118.85 26.84C119.273 27.0175 119.608 27.3557 119.782 27.7804Z" fill="#12122A"/>
<path d="M124.279 32.5915C124.387 32.5561 124.478 32.4821 124.534 32.3837C124.591 32.2853 124.609 32.1694 124.586 32.0583C124.562 31.9472 124.499 31.8486 124.407 31.7816C124.316 31.7145 124.203 31.6837 124.09 31.6949C123.208 31.6949 122.717 31.5876 122.44 31.2403C122.012 30.7037 122.012 29.5041 122.44 27.7741C122.455 27.7152 122.458 27.654 122.449 27.5939C122.441 27.5338 122.42 27.476 122.389 27.4238C122.358 27.3717 122.317 27.3261 122.269 27.2898C122.22 27.2535 122.165 27.2271 122.106 27.2122C122.047 27.1973 121.986 27.1941 121.926 27.2028C121.866 27.2116 121.809 27.232 121.757 27.2631C121.705 27.2942 121.659 27.3352 121.623 27.3839C121.587 27.4326 121.56 27.4879 121.546 27.5468C121.01 29.6556 121.06 31.013 121.709 31.8275C122.358 32.642 123.265 32.6483 124.116 32.623C124.172 32.6241 124.227 32.6133 124.279 32.5915Z" fill="#12122A"/>
<path d="M124.538 35.3063C125.853 34.7849 126.96 33.8441 127.688 32.6293C127.747 32.5231 127.762 32.3983 127.732 32.2808C127.701 32.1633 127.627 32.0621 127.524 31.9979C127.472 31.9672 127.414 31.9471 127.354 31.9387C127.295 31.9303 127.234 31.9338 127.175 31.9491C127.117 31.9643 127.062 31.991 127.014 32.0276C126.965 32.0641 126.925 32.1098 126.894 32.1621C126.205 33.313 125.121 34.1727 123.845 34.5802C123.785 34.5949 123.729 34.6223 123.68 34.6605C123.632 34.6988 123.592 34.747 123.563 34.802C123.534 34.857 123.518 34.9175 123.514 34.9794C123.511 35.0413 123.521 35.1033 123.543 35.1611C123.561 35.2193 123.59 35.2734 123.629 35.3202C123.668 35.367 123.716 35.4056 123.77 35.4338C123.824 35.462 123.883 35.4792 123.943 35.4844C124.004 35.4896 124.065 35.4827 124.123 35.4642C124.255 35.4137 124.4 35.3568 124.538 35.3063Z" fill="#12122A"/>
<path d="M114.012 35.7168C114.125 35.6716 114.215 35.5844 114.265 35.4737C114.314 35.3629 114.318 35.2373 114.277 35.1233C113.78 33.7455 113.42 32.3224 113.2 30.8741C113.191 30.814 113.17 30.7563 113.139 30.7042C113.107 30.6522 113.066 30.6068 113.017 30.5708C112.968 30.5347 112.913 30.5087 112.854 30.4941C112.795 30.4795 112.734 30.4767 112.674 30.4858C112.614 30.495 112.556 30.5158 112.504 30.5473C112.452 30.5787 112.407 30.6201 112.371 30.669C112.335 30.718 112.309 30.7735 112.295 30.8326C112.28 30.8916 112.277 30.9529 112.286 31.013C112.516 32.5194 112.891 33.9996 113.408 35.4326C113.428 35.49 113.46 35.5428 113.501 35.5879C113.541 35.633 113.591 35.6695 113.646 35.6954C113.701 35.7212 113.761 35.7358 113.821 35.7384C113.882 35.741 113.943 35.7315 114 35.7104L114.012 35.7168Z" fill="#12122A"/>
<path d="M113.055 33.3681C113.156 33.3251 113.24 33.2472 113.289 33.1485C113.339 33.0497 113.352 32.9364 113.327 32.8288C113.301 32.7211 113.238 32.6261 113.149 32.5607C113.06 32.4953 112.951 32.4637 112.84 32.4715L110.535 32.6988C110.472 32.7017 110.409 32.7175 110.352 32.7452C110.295 32.773 110.245 32.8122 110.203 32.8603C110.162 32.9084 110.13 32.9645 110.111 33.0252C110.092 33.0858 110.086 33.1497 110.092 33.213C110.099 33.2762 110.118 33.3375 110.149 33.393C110.18 33.4486 110.222 33.4972 110.272 33.536C110.322 33.5747 110.38 33.6028 110.441 33.6184C110.503 33.634 110.567 33.6369 110.629 33.6269L112.929 33.3996L113.055 33.3681Z" fill="#12122A"/>
<path d="M141.192 26.9786C141.29 26.9388 141.371 26.8675 141.424 26.776C141.476 26.6845 141.497 26.578 141.482 26.4735C141.417 26.0816 141.447 25.6798 141.57 25.302C141.692 24.9242 141.903 24.5814 142.185 24.3023C142.467 24.0233 142.812 23.8162 143.191 23.6985C143.569 23.5808 143.97 23.556 144.36 23.626C144.42 23.6369 144.481 23.6359 144.54 23.6231C144.6 23.6103 144.656 23.5858 144.705 23.5512C144.755 23.5166 144.798 23.4725 144.83 23.4214C144.863 23.3703 144.885 23.3132 144.896 23.2535C144.918 23.1321 144.891 23.0069 144.822 22.9052C144.752 22.8035 144.645 22.7335 144.524 22.7105C143.988 22.6208 143.438 22.6581 142.919 22.8192C142.399 22.9803 141.924 23.2609 141.532 23.6386C141.147 24.0234 140.859 24.494 140.69 25.012C140.522 25.5299 140.478 26.0805 140.562 26.6187C140.582 26.7409 140.65 26.8501 140.75 26.9224C140.851 26.9946 140.976 27.0239 141.098 27.0038L141.192 26.9786Z" fill="#12122A"/>
<path d="M143.171 25.8863C143.245 25.8576 143.31 25.8097 143.36 25.7473C143.429 25.652 143.46 25.5339 143.446 25.4168C143.432 25.2997 143.374 25.1922 143.284 25.116L141.955 24.0553C141.857 23.9915 141.739 23.9666 141.624 23.9857C141.509 24.0048 141.406 24.0663 141.334 24.1583C141.262 24.2502 141.227 24.3658 141.236 24.4823C141.245 24.5989 141.297 24.7078 141.382 24.7877L142.711 25.8484C142.777 25.8953 142.855 25.9236 142.936 25.9303C143.017 25.937 143.098 25.9218 143.171 25.8863Z" fill="#12122A"/>
<path d="M129.608 18.3098C129.683 18.2802 129.75 18.235 129.805 18.1773C129.86 18.1196 129.903 18.0507 129.93 17.9752C129.952 17.9068 129.961 17.8346 129.955 17.7629C129.95 17.6911 129.93 17.6211 129.897 17.5571C129.864 17.493 129.819 17.4362 129.764 17.3898C129.709 17.3434 129.645 17.3085 129.577 17.287C128.578 16.9702 127.514 16.92 126.49 17.1415C125.466 17.363 124.517 17.8483 123.738 18.5497C123.632 18.6474 123.568 18.783 123.561 18.9271C123.554 19.0713 123.604 19.2124 123.7 19.32C123.748 19.3734 123.806 19.4167 123.87 19.4475C123.935 19.4783 124.005 19.4959 124.076 19.4995C124.148 19.503 124.219 19.4923 124.286 19.468C124.354 19.4437 124.416 19.4063 124.468 19.3579C125.11 18.7915 125.885 18.3981 126.72 18.2148C127.556 18.0314 128.424 18.0641 129.243 18.3098C129.361 18.3512 129.49 18.3512 129.608 18.3098Z" fill="#12122A"/>
<path d="M119.832 21.1636C119.948 21.1205 120.044 21.0377 120.103 20.93C120.139 20.8679 120.163 20.7993 120.172 20.7281C120.181 20.6569 120.176 20.5846 120.158 20.5153C120.139 20.446 120.107 20.3812 120.063 20.3244C120.019 20.2677 119.964 20.2203 119.902 20.185C118.952 19.683 117.851 19.5458 116.808 19.7993C115.764 20.0527 114.848 20.6793 114.233 21.5613C114.154 21.6819 114.127 21.8288 114.156 21.9697C114.186 22.1106 114.27 22.234 114.39 22.3127C114.449 22.3525 114.516 22.38 114.586 22.3936C114.656 22.4072 114.728 22.4066 114.798 22.3919C114.868 22.3772 114.934 22.3487 114.993 22.308C115.051 22.2672 115.101 22.2152 115.14 22.1548C115.604 21.497 116.292 21.0307 117.074 20.8426C117.856 20.6545 118.679 20.7573 119.391 21.132C119.458 21.1692 119.532 21.1914 119.608 21.1968C119.685 21.2023 119.761 21.1909 119.832 21.1636Z" fill="#12122A"/>
<path d="M128.349 46.7216C131.58 46.4564 136.89 42.081 136.89 42.081C136.89 42.081 134.282 47.3845 128.865 49.5438L128.349 46.7216Z" fill="#4763D5"/>
<path d="M129.174 30.7984C129.429 31.2182 129.803 31.5527 130.248 31.7597C130.693 31.9667 131.189 32.0368 131.674 31.9611C132.159 31.8855 132.61 31.6676 132.972 31.3348C133.333 31.0021 133.588 30.5695 133.704 30.0917C133.82 29.614 133.792 29.1124 133.624 28.6504C133.456 28.1885 133.155 27.7868 132.759 27.4962C132.363 27.2057 131.89 27.0392 131.4 27.0178C130.91 26.9965 130.424 27.1213 130.005 27.3763C129.726 27.5461 129.483 27.7693 129.29 28.0332C129.097 28.2971 128.958 28.5966 128.881 28.9145C128.804 29.2323 128.79 29.5624 128.84 29.8856C128.89 30.2089 129.004 30.5191 129.174 30.7984Z" fill="#7B9AF8"/>
<path d="M114.938 35.1485C115.194 35.5683 115.568 35.9028 116.013 36.1098C116.458 36.3168 116.954 36.3868 117.439 36.3112C117.923 36.2356 118.375 36.0177 118.736 35.6849C119.097 35.3522 119.352 34.9196 119.468 34.4418C119.584 33.964 119.557 33.4625 119.388 33.0005C119.22 32.5386 118.919 32.1369 118.523 31.8463C118.128 31.5558 117.655 31.3893 117.165 31.3679C116.675 31.3466 116.189 31.4714 115.77 31.7264C115.491 31.8961 115.248 32.1194 115.055 32.3833C114.862 32.6472 114.723 32.9467 114.646 33.2646C114.568 33.5824 114.555 33.9125 114.605 34.2357C114.655 34.559 114.768 34.8692 114.938 35.1485Z" fill="#7B9AF8"/>
<path d="M112.368 29.4472C112.368 29.4472 119.19 21.2394 118.737 14.2943C118.737 14.2943 125.665 20.8669 134.339 24.7814C134.339 24.7814 135.101 31.2593 136.166 31.0194C137.23 30.7794 137.823 26.9344 138.799 23.203C139.501 20.6887 140.436 18.2453 141.589 15.9043L130.516 4.50803L125.218 4.00293L119.253 5.16466L114.554 8.70665L111.045 12.4381L109.275 19.4968L109.653 24.7688L112.368 29.4472Z" fill="#12122A"/>
<path d="M73.188 49.8153C74.6846 49.8153 76.1666 50.111 77.5491 50.6854C78.9317 51.2599 80.1877 52.1019 81.2454 53.1632C82.3031 54.2245 83.1417 55.4844 83.7133 56.8709C84.2849 58.2573 84.5783 59.743 84.5766 61.2431V86.8579H61.8057V61.2431C61.804 59.7436 62.0972 58.2583 62.6684 56.8723C63.2396 55.4863 64.0776 54.2267 65.1346 53.1654C66.1917 52.1042 67.447 51.2621 68.8288 50.6873C70.2106 50.1124 71.6919 49.8161 73.188 49.8153Z" fill="#12122A"/>
<path d="M76.042 63.4087C76.042 63.4087 83.5126 59.5889 84.9929 59.1217C86.4732 58.6545 92.0793 60.6118 92.9171 61.5336C93.7548 62.4554 106.145 89.2445 106.145 89.2445C106.145 89.2445 104.255 111.601 98.7751 104.972C95.55 101.07 88.9676 71.8186 88.9676 71.8186L82.8386 67.822L78.5868 69.5583L76.042 63.4087Z" fill="#6388F7"/>
<path d="M59.2106 82.0784L54.4233 68.7123C54.3016 68.363 54.3219 67.9798 54.4799 67.6454C54.6378 67.311 54.9207 67.0524 55.2674 66.9255L79.4493 58.5093C79.6229 58.444 79.8077 58.4139 79.993 58.4209C80.1783 58.4279 80.3603 58.4717 80.5286 58.5498C80.6968 58.628 80.8479 58.7389 80.9729 58.8761C81.098 59.0133 81.1946 59.174 81.2571 59.349L86.0444 72.7152C86.1676 73.0677 86.1467 73.4548 85.9862 73.7919C85.8257 74.129 85.5386 74.3888 85.1877 74.5146L60.9995 82.9308C60.8262 82.9928 60.6424 83.02 60.4586 83.0108C60.2748 83.0015 60.0947 82.956 59.9285 82.8768C59.7623 82.7976 59.6134 82.6863 59.4902 82.5493C59.367 82.4123 59.2719 82.2523 59.2106 82.0784Z" fill="#00DDD1"/>
<path d="M65.6169 81.3081C63.5196 75.8964 62.5424 70.1137 62.7445 64.3116L55.2676 66.9255C55.0928 66.9864 54.9317 67.0814 54.7936 67.2049C54.6555 67.3284 54.5431 67.4781 54.4629 67.6453C54.3827 67.8126 54.3363 67.994 54.3263 68.1793C54.3163 68.3645 54.3429 68.55 54.4046 68.7249L59.2108 82.0784C59.3349 82.4266 59.5912 82.7115 59.9239 82.8712C60.2566 83.0308 60.6387 83.0522 60.9871 82.9308L65.6169 81.3081Z" fill="#0086AE"/>
<path d="M70.341 74.1358L70.2024 73.6938C69.7669 73.767 69.3203 73.7368 68.8986 73.6054C68.5209 73.4862 68.1817 73.2682 67.9159 72.9741C67.8464 72.8994 67.7928 72.8113 67.7584 72.7152C67.7519 72.6543 67.7519 72.593 67.7584 72.5321C67.7713 72.399 67.829 72.2743 67.9222 72.1785C67.9791 72.1129 68.0533 72.0648 68.1364 72.0396C68.24 72.0215 68.3465 72.0268 68.4478 72.0552C68.5492 72.0836 68.6429 72.1344 68.7222 72.2038C68.9479 72.3926 69.2191 72.5187 69.5087 72.5697C69.7983 72.6206 70.0961 72.5946 70.3725 72.4942C70.685 72.4064 70.9624 72.2232 71.1662 71.9702C71.2644 71.8542 71.332 71.7154 71.3628 71.5665C71.3936 71.4176 71.3866 71.2634 71.3426 71.1178C71.3012 70.9759 71.2197 70.8491 71.1079 70.7528C70.9961 70.6564 70.8588 70.5946 70.7127 70.5749C70.4494 70.5374 70.1822 70.5374 69.919 70.5749H69.7678C69.1603 70.6753 68.5376 70.6254 67.9537 70.4296C67.6989 70.3443 67.4688 70.1979 67.2833 70.0031C67.0977 69.8084 66.9625 69.5712 66.8892 69.3121C66.8153 69.0742 66.7889 68.8241 66.8116 68.576C66.8343 68.3279 66.9056 68.0867 67.0214 67.8663C67.2578 67.413 67.6332 67.0478 68.0923 66.8245L67.9663 66.4267C67.9439 66.3642 67.9345 66.2978 67.9387 66.2315C67.9429 66.1653 67.9605 66.1005 67.9906 66.0414C68.0207 65.9822 68.0626 65.9299 68.1137 65.8876C68.1647 65.8452 68.2239 65.8139 68.2875 65.7954C68.3447 65.7766 68.4051 65.7703 68.4649 65.7768C68.5246 65.7833 68.5823 65.8026 68.634 65.8332C68.6888 65.863 68.7372 65.9035 68.7761 65.9523C68.8151 66.0011 68.8438 66.0572 68.8608 66.1174L68.9867 66.5151C69.317 66.4465 69.6584 66.4535 69.9856 66.5355C70.3127 66.6175 70.6173 66.7724 70.8764 66.9887C70.9332 67.0368 70.9747 67.1004 70.9961 67.1718C70.9983 67.2054 70.9983 67.2391 70.9961 67.2728C70.9995 67.3761 70.9756 67.4784 70.9268 67.5695C70.8943 67.6265 70.8508 67.6765 70.7989 67.7165C70.747 67.7566 70.6877 67.7861 70.6245 67.8031C70.512 67.8407 70.3905 67.8407 70.278 67.8031C70.0637 67.6955 69.8343 67.621 69.5977 67.5821C69.3486 67.5611 69.0979 67.5912 68.8608 67.6705C68.5634 67.7544 68.2993 67.9287 68.1049 68.1693C68.0159 68.2727 67.9552 68.3974 67.9287 68.5313C67.9022 68.6652 67.9108 68.8037 67.9537 68.9333C67.9996 69.0749 68.0876 69.1991 68.2057 69.2893C68.3239 69.3796 68.4667 69.4316 68.6151 69.4384C69.0064 69.4849 69.4018 69.4849 69.793 69.4384C70.3187 69.3873 70.8492 69.4498 71.3489 69.6215C71.5942 69.7131 71.8145 69.8615 71.9919 70.0546C72.1692 70.2477 72.2985 70.48 72.3693 70.7327C72.5287 71.2356 72.4881 71.7807 72.2559 72.2543C72.0077 72.7431 71.6075 73.1376 71.1158 73.3781L71.2607 73.8264C71.2803 73.8853 71.2879 73.9474 71.2833 74.0093C71.2787 74.0711 71.2618 74.1314 71.2336 74.1867C71.2055 74.2419 71.1666 74.291 71.1194 74.3311C71.0721 74.3711 71.0174 74.4013 70.9583 74.4199C70.8992 74.4421 70.8363 74.4524 70.7732 74.4501C70.7101 74.4478 70.6481 74.433 70.5907 74.4066C70.5333 74.3802 70.4817 74.3427 70.4389 74.2962C70.396 74.2497 70.3628 74.1952 70.341 74.1358Z" fill="white"/>
<path d="M88.9359 71.8186C87.8174 71.8636 86.7025 71.6657 85.6675 71.2385C84.6324 70.8113 83.7018 70.1649 82.9392 69.3436C82.9392 69.3436 78.1897 72.4626 77.4716 71.6229C76.7536 70.7832 79.2921 67.2854 81.5471 65.7448C83.8022 64.2043 88.3437 63.8128 88.3437 63.8128L88.9359 71.8186Z" fill="#6388F7"/>
<path d="M52.5467 85.3868H43.791V140.531H52.5467V85.3868Z" fill="#C74200"/>
<path d="M17.1709 86.8453V61.2431C17.1692 59.743 17.4626 58.2573 18.0342 56.8709C18.6058 55.4844 19.4444 54.2245 20.5021 53.1632C21.5598 52.1019 22.8158 51.2599 24.1984 50.6854C25.5809 50.111 27.0629 49.8153 28.5595 49.8153H73.1881C71.6917 49.8153 70.2101 50.111 68.8279 50.6856C67.4457 51.2601 66.1901 52.1022 65.1329 53.1636C64.0757 54.225 63.2376 55.485 62.6667 56.8713C62.0958 58.2577 61.8033 59.7433 61.8057 61.2431V86.8579L17.1709 86.8453Z" fill="#FF5F00"/>
<path d="M181.538 54.961C181.538 54.961 169.406 80.8788 179.522 84.686C189.638 88.4932 191.578 71.9765 187.295 55.182L181.538 54.961Z" fill="#6388F7"/>
<path d="M157.885 39.8081L164.322 27.1806C164.406 27.0159 164.522 26.8696 164.662 26.7501C164.803 26.6307 164.966 26.5404 165.142 26.4846C165.318 26.4288 165.503 26.4086 165.687 26.4251C165.87 26.4416 166.049 26.4945 166.212 26.5808L188.888 38.4822C189.052 38.5667 189.198 38.683 189.316 38.8243C189.435 38.9656 189.524 39.1291 189.579 39.3053C189.634 39.4815 189.654 39.6668 189.637 39.8507C189.62 40.0345 189.567 40.2132 189.481 40.3763L183.043 53.0037C182.962 53.1711 182.848 53.3205 182.709 53.4433C182.569 53.566 182.407 53.6595 182.231 53.7183C182.055 53.7771 181.869 53.8001 181.684 53.7858C181.499 53.7715 181.318 53.7203 181.153 53.6351L158.477 41.6706C158.156 41.4986 157.914 41.2077 157.803 40.8599C157.693 40.512 157.722 40.1347 157.885 39.8081Z" fill="#C74200"/>
<path d="M155.819 50.9202L157.658 36.8406C157.682 36.6566 157.741 36.4792 157.833 36.3186C157.926 36.1579 158.049 36.0174 158.196 35.9051C158.344 35.7928 158.512 35.7111 158.691 35.6647C158.87 35.6182 159.056 35.608 159.239 35.6346L184.561 39.2272C184.926 39.2774 185.256 39.4703 185.479 39.7637C185.702 40.0572 185.8 40.4272 185.752 40.793L183.932 54.8789C183.908 55.0625 183.847 55.2395 183.755 55.3997C183.662 55.5599 183.539 55.7001 183.392 55.8122C183.245 55.9243 183.077 56.0062 182.898 56.0529C182.72 56.0997 182.533 56.1106 182.35 56.0848L156.997 52.4923C156.634 52.4376 156.307 52.2421 156.087 51.948C155.867 51.6539 155.77 51.2847 155.819 50.9202Z" fill="#FF5F00"/>
<path d="M171.232 49.247L170.483 48.8051C169.688 48.3934 169.022 47.7689 168.56 47.001C168.097 46.2332 167.856 45.3519 167.862 44.4549C167.888 43.9613 168.095 43.4949 168.445 43.1458C168.794 42.7968 169.26 42.5901 169.752 42.5657C170.245 42.5414 170.729 42.7011 171.11 43.0139C171.492 43.3268 171.744 43.7705 171.818 44.2592C172.018 43.8254 172.367 43.478 172.801 43.28C173.235 43.0821 173.725 43.0468 174.183 43.1806C174.64 43.3144 175.035 43.6084 175.294 44.0091C175.554 44.4098 175.662 44.8906 175.598 45.3641C175.398 46.2382 174.961 47.0399 174.335 47.6806C173.709 48.3213 172.919 48.776 172.051 48.9945L171.232 49.247Z" fill="white"/>
<path d="M188.183 43.8741C186.413 43.5079 175.22 44.0509 174.999 45.7051C174.779 47.3593 182.237 47.4792 182.237 47.4792C182.237 47.4792 174.564 47.6813 174.564 49.5249C174.564 51.5768 182.092 51.4885 182.092 51.4885C182.092 51.4885 175.742 51.7726 175.969 53.3257C176.083 54.1023 181.537 54.961 181.537 54.961V57.4044L187.295 55.182C187.295 55.182 191.351 44.5307 188.183 43.8741Z" fill="#6388F7"/>
<path d="M175.692 98.3173C175.692 98.3173 183.648 102.503 187.73 117.397C187.73 117.397 165.564 145.714 133.395 156.675L138.314 108.773L175.692 98.3173Z" fill="#00377E"/>
<path d="M183.931 121.817C180.599 113.992 176.572 106.482 171.9 99.3781L171.05 99.618C172.788 102.249 174.434 104.93 175.988 107.662C175.251 108.293 174.168 108.659 173.412 108.337C172.461 107.859 171.635 107.165 170.999 106.311C169.555 104.577 168.333 102.668 167.365 100.628L166.546 100.855C167.559 103 168.84 105.007 170.357 106.828C171.073 107.789 172.008 108.564 173.084 109.089C173.375 109.211 173.688 109.271 174.004 109.265C174.877 109.228 175.717 108.916 176.404 108.375C178.962 112.947 181.265 117.658 183.301 122.486L183.931 121.817Z" fill="#4763D5"/>
<path d="M41.9326 39.8207C41.9326 40.0907 41.9858 40.358 42.089 40.6074C42.1923 40.8568 42.3437 41.0833 42.5344 41.2739C42.7252 41.4645 42.9516 41.6155 43.2007 41.7183C43.4498 41.821 43.7167 41.8735 43.9861 41.8726H51.3182C51.7046 41.8743 52.0747 42.0294 52.3474 42.3039C52.6201 42.5784 52.7732 42.95 52.7732 43.3374V65.6628C52.7724 65.8548 52.8094 66.0452 52.8822 66.2228C52.9549 66.4005 53.062 66.562 53.1972 66.6981C53.3324 66.8342 53.4931 66.9422 53.67 67.0159C53.847 67.0896 54.0367 67.1276 54.2283 67.1276C54.4199 67.1276 54.6096 67.0896 54.7866 67.0159C54.9635 66.9422 55.1242 66.8342 55.2594 66.6981C55.3946 66.562 55.5017 66.4005 55.5744 66.2228C55.6472 66.0452 55.6842 65.8548 55.6834 65.6628V35.8746C55.6829 35.646 55.6289 35.4207 55.5256 35.2169C55.4223 35.0131 55.2727 34.8365 55.0888 34.7014C54.9049 34.5662 54.6918 34.4762 54.4669 34.4387C54.2419 34.4013 54.0113 34.4173 53.7937 34.4856L43.3562 37.8824C42.9455 38.014 42.5867 38.2723 42.3311 38.6203C42.0755 38.9684 41.936 39.3885 41.9326 39.8207Z" fill="white"/>
<path d="M126.611 85.2795C126.563 85.289 126.514 85.289 126.466 85.2795C122.926 83.9473 120.948 80.2285 120.753 74.5083C120.683 71.7527 120.932 68.9984 121.496 66.3005C121.529 66.2004 121.598 66.1164 121.69 66.0648C121.781 66.0132 121.889 65.9977 121.991 66.0214C122.094 66.0451 122.184 66.1062 122.244 66.1929C122.303 66.2795 122.329 66.3854 122.315 66.4899C122.277 66.6414 118.957 81.5228 126.756 84.465C126.848 84.4987 126.925 84.5638 126.974 84.6489C127.022 84.734 127.04 84.8336 127.022 84.9302C127.005 85.0268 126.954 85.1142 126.879 85.1769C126.804 85.2397 126.709 85.2738 126.611 85.2732V85.2795Z" fill="#E7AD00"/>
<path d="M134.345 60.2077C130.244 60.2077 127.706 57.859 126.698 55.4977C126.656 55.3954 126.655 55.2806 126.697 55.1779C126.738 55.0752 126.817 54.9928 126.919 54.9484C127.021 54.9077 127.135 54.9079 127.237 54.949C127.339 54.9902 127.421 55.0691 127.467 55.1694C129.237 59.3175 133.766 59.8352 137.142 59.0144C139.051 58.5115 140.764 57.4437 142.058 55.9503C143.353 54.4569 144.168 52.6072 144.398 50.6424C144.411 50.5323 144.466 50.4316 144.552 50.362C144.638 50.2923 144.748 50.2592 144.858 50.2699C144.913 50.2746 144.966 50.2902 145.014 50.3158C145.062 50.3413 145.105 50.3763 145.14 50.4187C145.174 50.461 145.2 50.5099 145.216 50.5624C145.231 50.615 145.236 50.6701 145.23 50.7245C144.974 52.8624 144.083 54.8738 142.672 56.4974C141.261 58.1211 139.396 59.2818 137.318 59.8289C136.345 60.0711 135.348 60.1982 134.345 60.2077Z" fill="#E7AD00"/>
<path d="M52.5404 89.6927H46.6445V131.332H52.5404V89.6927Z" fill="#FF5F00"/>
<path d="M91.1339 102.8L84.5766 86.8453H61.8057L69.0495 104.473C70.2304 107.351 72.2385 109.811 74.8184 111.541C77.3982 113.271 80.4332 114.193 83.5373 114.19C84.8884 114.189 86.2184 113.854 87.4097 113.215C88.6011 112.576 89.6171 111.653 90.368 110.527C91.1189 109.401 91.5816 108.107 91.7151 106.76C91.8487 105.412 91.6491 104.052 91.1339 102.8Z" fill="#C74200"/>
<path d="M118.453 97.8059C118.881 97.1745 119.297 96.5432 119.713 95.9118L107.19 84.9638L118.453 97.8059Z" fill="#4763D5"/>
<path d="M161.501 26.3787L160.764 26.2966C160.002 26.2523 159.268 25.9977 158.642 25.5608C158.016 25.124 157.523 24.5221 157.217 23.8217C157.078 23.4307 157.086 23.0021 157.239 22.6164C157.393 22.2307 157.681 21.9144 158.051 21.7268C158.42 21.5393 158.845 21.4934 159.246 21.5978C159.647 21.7021 159.997 21.9496 160.228 22.2937C160.222 21.8791 160.367 21.4764 160.637 21.1617C160.906 20.847 161.281 20.642 161.691 20.5853C162.101 20.5286 162.517 20.6242 162.862 20.854C163.206 21.0838 163.455 21.432 163.561 21.8328C163.709 22.5814 163.648 23.3566 163.384 24.0723C163.119 24.7879 162.661 25.4159 162.061 25.8862L161.501 26.3787Z" fill="#FF5F00"/>
<path d="M166.37 20.2481L165.979 20.065C165.569 19.9012 165.213 19.6269 164.95 19.2725C164.686 18.9181 164.526 18.4975 164.486 18.0572C164.476 17.8141 164.557 17.5759 164.712 17.3886C164.867 17.2013 165.085 17.0781 165.325 17.0428C165.566 17.0075 165.81 17.0626 166.013 17.1975C166.215 17.3323 166.36 17.5374 166.42 17.7731C166.507 17.5643 166.662 17.3918 166.861 17.2845C167.06 17.1772 167.289 17.1417 167.511 17.1839C167.732 17.2261 167.933 17.3435 168.078 17.5163C168.224 17.6891 168.305 17.9069 168.31 18.133C168.254 18.5717 168.077 18.9863 167.801 19.3307C167.524 19.6751 167.157 19.9358 166.741 20.0839L166.37 20.2481Z" fill="#FF5F00"/>
<path d="M48.3196 10.0515H35.5452C34.7834 10.0515 34.0528 10.3548 33.5141 10.8947C32.9755 11.4346 32.6729 12.1669 32.6729 12.9305V20.9995C32.6728 21.7636 32.9753 22.4966 33.5138 23.0375C34.0523 23.5784 34.7828 23.8832 35.5452 23.8848H39.3687L41.9324 26.4545L44.5024 23.8848H48.3196C49.0826 23.8832 49.8138 23.5786 50.3533 23.0379C50.8928 22.4971 51.1966 21.7642 51.1983 20.9995V12.9305C51.1966 12.1664 50.8926 11.4341 50.3529 10.8943C49.8132 10.3546 49.082 10.0515 48.3196 10.0515Z" fill="#FF5F00"/>
<path d="M42.928 19.1559L41.9327 19.7872L40.9438 19.1559C38.462 17.5459 38.462 16.3968 38.462 15.9674C38.4582 15.5516 38.5959 15.1468 38.8522 14.8198C39.1085 14.4928 39.4682 14.2629 39.8722 14.1681C40.2762 14.0733 40.7003 14.1192 41.0749 14.2982C41.4494 14.4772 41.7519 14.7787 41.9327 15.153C42.1153 14.7818 42.4176 14.4832 42.7906 14.3057C43.1636 14.1282 43.5854 14.0821 43.9878 14.1749C44.3902 14.2677 44.7495 14.4939 45.0076 14.817C45.2657 15.14 45.4074 15.541 45.4098 15.9548C45.4098 16.4157 45.4098 17.5459 42.928 19.1559Z" fill="#C74200"/>
<path d="M90.2586 20.6017H67.5821C67.0475 20.6017 66.5348 20.8145 66.1568 21.1934C65.7788 21.5723 65.5664 22.0862 65.5664 22.6221V34.6181C65.5664 35.154 65.7788 35.6679 66.1568 36.0468C66.5348 36.4257 67.0475 36.6385 67.5821 36.6385H68.9742V39.7954L72.1237 36.6385H90.2838C90.8183 36.6385 91.331 36.4257 91.7091 36.0468C92.0871 35.6679 92.2994 35.154 92.2994 34.6181V22.6221C92.2995 22.3546 92.2465 22.0898 92.1436 21.843C92.0408 21.5962 91.89 21.3724 91.7002 21.1844C91.5103 20.9965 91.2851 20.8482 91.0377 20.7481C90.7902 20.6481 90.5254 20.5983 90.2586 20.6017Z" fill="white"/>
<path d="M73.1757 28.4118C73.1757 28.6256 73.1124 28.8345 72.9938 29.0122C72.8751 29.1899 72.7065 29.3283 72.5094 29.4098C72.3122 29.4913 72.0953 29.5123 71.8862 29.4702C71.677 29.428 71.4851 29.3245 71.3347 29.1729C71.1844 29.0213 71.0823 28.8283 71.0414 28.6185C71.0006 28.4086 71.0228 28.1914 71.1053 27.9942C71.1878 27.797 71.3268 27.6289 71.5048 27.511C71.6827 27.3931 71.8916 27.3309 72.1049 27.3321C72.2461 27.3321 72.3858 27.3601 72.5162 27.4144C72.6465 27.4687 72.7648 27.5484 72.8643 27.6487C72.9639 27.7491 73.0426 27.8681 73.0961 27.9991C73.1495 28.13 73.1766 28.2703 73.1757 28.4118Z" fill="#DAF5FF"/>
<path d="M77.7236 28.4117C77.7236 28.6253 77.6604 28.834 77.5421 29.0116C77.4237 29.1891 77.2555 29.3275 77.0587 29.4092C76.8619 29.4909 76.6453 29.5123 76.4363 29.4706C76.2274 29.429 76.0355 29.3262 75.8848 29.1752C75.7342 29.0242 75.6316 28.8318 75.59 28.6224C75.5485 28.4129 75.5698 28.1959 75.6513 27.9986C75.7329 27.8013 75.8709 27.6327 76.048 27.514C76.2252 27.3954 76.4334 27.3321 76.6465 27.3321C76.9321 27.3321 77.2061 27.4458 77.4081 27.6483C77.6101 27.8508 77.7236 28.1254 77.7236 28.4117Z" fill="#DAF5FF"/>
<path d="M82.2656 28.4118C82.2656 28.6256 82.2023 28.8345 82.0836 29.0122C81.965 29.1899 81.7964 29.3283 81.5992 29.4098C81.402 29.4913 81.1851 29.5123 80.976 29.4702C80.7669 29.428 80.575 29.3245 80.4246 29.1729C80.2742 29.0213 80.1721 28.8283 80.1313 28.6185C80.0904 28.4086 80.1126 28.1914 80.1951 27.9942C80.2776 27.797 80.4167 27.6289 80.5946 27.511C80.7726 27.3931 80.9815 27.3309 81.1948 27.3321C81.3359 27.3321 81.4757 27.3601 81.606 27.4144C81.7363 27.4687 81.8547 27.5484 81.9542 27.6487C82.0537 27.7491 82.1325 27.8681 82.1859 27.9991C82.2393 28.13 82.2664 28.2703 82.2656 28.4118Z" fill="#DAF5FF"/>
<path d="M86.8134 28.4117C86.8134 28.6253 86.7503 28.834 86.6319 29.0116C86.5136 29.1891 86.3453 29.3275 86.1485 29.4092C85.9517 29.4909 85.7351 29.5123 85.5262 29.4706C85.3172 29.429 85.1253 29.3262 84.9747 29.1752C84.824 29.0242 84.7214 28.8318 84.6799 28.6224C84.6383 28.4129 84.6596 28.1959 84.7412 27.9986C84.8227 27.8013 84.9608 27.6327 85.1379 27.514C85.315 27.3954 85.5233 27.3321 85.7363 27.3321C86.022 27.3321 86.296 27.4458 86.498 27.6483C86.7 27.8508 86.8134 28.1254 86.8134 28.4117Z" fill="#DAF5FF"/>
<path d="M31.5397 28.5885H22.4691C22.2005 28.5877 21.9345 28.64 21.6861 28.7424C21.4378 28.8449 21.2121 28.9954 21.0219 29.1854C20.8317 29.3755 20.6808 29.6013 20.5778 29.8499C20.4749 30.0985 20.4219 30.365 20.4219 30.6342V36.3607C20.4211 36.6304 20.4734 36.8976 20.576 37.147C20.6786 37.3963 20.8294 37.6228 21.0196 37.8135C21.2099 38.0042 21.4359 38.1554 21.6847 38.2582C21.9334 38.361 22.2 38.4135 22.4691 38.4127H25.1965L27.0233 40.2374L28.8437 38.4127H31.5585C31.8271 38.4127 32.093 38.3596 32.341 38.2564C32.589 38.1532 32.8143 38.0019 33.0039 37.8113C33.1935 37.6207 33.3437 37.3944 33.4459 37.1455C33.5481 36.8966 33.6003 36.6299 33.5994 36.3607V30.6342C33.5994 30.3639 33.546 30.0964 33.4423 29.8469C33.3385 29.5975 33.1865 29.3712 32.995 29.1809C32.8035 28.9907 32.5763 28.8405 32.3265 28.7388C32.0767 28.6371 31.8092 28.586 31.5397 28.5885Z" fill="#FFD600"/>
<path d="M27.0039 30.7289L27.8039 32.3515L29.5928 32.6104L28.2952 33.8794L28.6039 35.6599L27.0039 34.8202L25.404 35.6599L25.7063 33.8794L24.415 32.6104L26.204 32.3515L27.0039 30.7289Z" fill="#6388F7"/>
<path d="M72.0102 118.85C70.4273 118.846 68.8789 119.313 67.5605 120.191C66.2421 121.069 65.213 122.319 64.6032 123.783C63.9935 125.247 63.8304 126.86 64.1346 128.417C64.4389 129.974 65.1967 131.405 66.3125 132.531C67.4283 133.656 68.8518 134.425 70.4033 134.74C71.9547 135.054 73.5644 134.901 75.029 134.299C76.4935 133.697 77.7472 132.673 78.6315 131.358C79.5158 130.042 79.9912 128.492 79.9974 126.906C80.0007 125.851 79.7967 124.806 79.3971 123.831C78.9975 122.855 78.4101 121.968 77.6685 121.22C76.9268 120.472 76.0454 119.877 75.0745 119.471C74.1037 119.064 73.0624 118.853 72.0102 118.85ZM78.5045 126.136H76.5077C76.4709 124.405 76.04 122.705 75.2479 121.167C76.1428 121.679 76.9041 122.397 77.4701 123.26C78.036 124.124 78.3904 125.109 78.5045 126.136ZM71.2796 120.548V126.136H68.9804C69.1379 123.301 70.1709 121.224 71.2796 120.548ZM71.2796 127.607V133.22C70.1709 132.588 69.1379 130.473 68.9804 127.632L71.2796 127.607ZM72.7472 133.194V127.607H75.0401C74.8826 130.448 73.8559 132.538 72.7472 133.22V133.194ZM72.7472 126.136V120.548C73.8559 121.179 74.8826 123.301 75.0401 126.136H72.7472ZM68.8103 121.167C68.0087 122.703 67.565 124.402 67.5127 126.136H65.5097C65.628 125.105 65.989 124.116 66.5628 123.253C67.1366 122.389 67.907 121.674 68.8103 121.167ZM65.5097 127.607H67.5064C67.557 129.34 68.0007 131.04 68.804 132.576C67.9018 132.068 67.1328 131.353 66.56 130.489C65.9873 129.625 65.6273 128.637 65.5097 127.607ZM75.2101 132.576C76.0022 131.037 76.4331 129.338 76.4699 127.607H78.4667C78.3552 128.635 78.0026 129.622 77.4377 130.488C76.8728 131.354 76.1117 132.074 75.2164 132.588L75.2101 132.576Z" fill="#C9E5FF"/>
<path d="M127.726 110.49H109.553C109.408 110.49 109.268 110.548 109.165 110.651C109.063 110.754 109.005 110.894 109.005 111.04V121.255C109.005 121.327 109.019 121.399 109.047 121.465C109.074 121.532 109.114 121.593 109.165 121.644C109.216 121.695 109.277 121.735 109.343 121.763C109.41 121.79 109.481 121.804 109.553 121.804H127.726C127.798 121.805 127.87 121.792 127.937 121.764C128.004 121.737 128.066 121.697 128.117 121.646C128.169 121.595 128.21 121.534 128.238 121.467C128.265 121.4 128.28 121.328 128.28 121.255V111.04C128.28 110.967 128.265 110.895 128.238 110.828C128.21 110.761 128.169 110.7 128.117 110.649C128.066 110.598 128.004 110.557 127.937 110.53C127.87 110.503 127.798 110.489 127.726 110.49ZM127.215 111.879L118.768 116.387C118.731 116.412 118.687 116.425 118.642 116.425C118.596 116.424 118.55 116.411 118.51 116.387L110.069 111.879C110.032 111.865 109.999 111.844 109.971 111.816C109.943 111.788 109.921 111.754 109.907 111.717C109.893 111.68 109.887 111.641 109.89 111.601C109.892 111.562 109.903 111.523 109.922 111.488C109.94 111.453 109.966 111.423 109.997 111.399C110.029 111.375 110.065 111.358 110.103 111.349C110.142 111.339 110.181 111.339 110.22 111.346C110.259 111.354 110.296 111.37 110.328 111.393L118.642 115.813L126.957 111.393C126.989 111.37 127.026 111.354 127.065 111.346C127.103 111.339 127.143 111.339 127.182 111.349C127.22 111.358 127.256 111.375 127.287 111.399C127.319 111.423 127.344 111.453 127.363 111.488C127.382 111.523 127.392 111.562 127.395 111.601C127.397 111.641 127.392 111.68 127.378 111.717C127.364 111.754 127.342 111.788 127.314 111.816C127.286 111.844 127.252 111.865 127.215 111.879Z" fill="#C9E5FF"/>
<path d="M187.497 92.313C186.659 94.8385 185.979 97.5723 186.564 100.186C187.15 102.8 189.349 105.237 192.019 105.193C194.381 105.193 196.429 103.242 197.216 101.02C198.003 98.7972 197.884 96.3411 197.575 93.9924C196.687 87.1294 189.89 85.0206 187.497 92.313Z" fill="#FF5F00"/>
<path d="M163.145 136.654C158.88 139.312 155 143.65 155.258 148.65C155.517 153.651 160.09 157.698 165.015 158.336C169.941 158.973 174.918 156.694 178.508 153.285C183.428 148.575 186.205 140.102 181.028 134.4C176.58 129.463 167.554 133.889 163.145 136.654Z" fill="#FFD600"/>
<path d="M184.769 130.17C185.292 132.165 187.288 133.807 189.323 133.497C193.43 132.866 195.874 125.233 192.202 122.764C187.969 119.923 183.799 126.458 184.769 130.17Z" fill="#FF5F00"/>
<path d="M-0.000247955 65.3534C-0.118577 67.2017 0.0643925 69.057 0.541468 70.8463C1.03003 72.6544 2.18787 74.2078 3.77916 75.1901C4.87074 75.7574 6.09966 76.0049 7.32512 75.9044C8.55058 75.8039 9.72301 75.3594 10.7081 74.6219C11.6793 73.8649 12.4807 72.9116 13.0602 71.8238C13.6397 70.736 13.9844 69.5382 14.0718 68.3082C14.2005 66.8595 14.0322 65.3996 13.5772 64.0185C13.1223 62.6374 12.3902 61.3642 11.4262 60.2771C5.83894 54.096 0.220218 57.9347 -0.000247955 65.3534Z" fill="#FFD600"/>
<path d="M66.3478 5.05097C66.0005 5.05262 65.6648 4.92519 65.4057 4.6933C65.1466 4.46141 64.9824 4.14151 64.9448 3.79537C64.9072 3.44923 64.9989 3.10141 65.2022 2.81907C65.4055 2.53674 65.7059 2.33992 66.0455 2.26662C77.5663 -0.150249 89.4069 -0.638801 101.087 0.820774C101.28 0.834174 101.467 0.887044 101.639 0.976112C101.81 1.06518 101.961 1.18855 102.083 1.3386C102.205 1.48864 102.295 1.66216 102.347 1.84842C102.4 2.03468 102.413 2.22972 102.387 2.42147C102.362 2.61322 102.297 2.7976 102.197 2.9632C102.097 3.12881 101.964 3.27211 101.807 3.38424C101.65 3.49638 101.471 3.57496 101.282 3.61512C101.093 3.65529 100.898 3.65618 100.709 3.61775C89.3571 2.20757 77.8505 2.69186 66.6565 5.05097C66.554 5.06365 66.4503 5.06365 66.3478 5.05097Z" fill="#DAF5FF"/>
<path d="M109.691 161C92.2491 161 72.8797 155.356 60.3446 146.617C60.0381 146.404 59.8287 146.077 59.7625 145.709C59.6964 145.341 59.7789 144.961 59.9919 144.654C60.2049 144.346 60.5309 144.137 60.8983 144.07C61.2657 144.004 61.6443 144.087 61.9509 144.3C75.7079 153.884 95.8396 158.19 109.691 158.19C109.884 158.177 110.077 158.204 110.259 158.269C110.441 158.334 110.608 158.436 110.749 158.569C110.89 158.701 111.003 158.861 111.08 159.039C111.157 159.216 111.196 159.408 111.196 159.602C111.196 159.795 111.157 159.987 111.08 160.164C111.003 160.342 110.89 160.502 110.749 160.634C110.608 160.767 110.441 160.869 110.259 160.934C110.077 160.999 109.884 161.026 109.691 161.013V161Z" fill="#DAF5FF"/>
<path d="M114.642 160.318C114.458 160.319 114.275 160.283 114.104 160.213C113.933 160.142 113.778 160.039 113.647 159.908C113.58 159.841 113.521 159.767 113.471 159.687C113.421 159.61 113.376 159.53 113.339 159.447C113.303 159.362 113.278 159.273 113.263 159.182C113.243 159.09 113.232 158.997 113.231 158.904C113.234 158.53 113.383 158.171 113.647 157.906C113.844 157.709 114.094 157.574 114.367 157.519C114.64 157.464 114.923 157.492 115.181 157.599C115.438 157.706 115.657 157.887 115.812 158.12C115.966 158.352 116.048 158.625 116.047 158.904C116.057 158.996 116.057 159.089 116.047 159.182C116.03 159.273 116.003 159.362 115.965 159.447C115.932 159.531 115.89 159.612 115.839 159.687C115.787 159.766 115.728 159.84 115.663 159.908C115.529 160.041 115.37 160.147 115.194 160.217C115.019 160.288 114.831 160.322 114.642 160.318Z" fill="#DAF5FF"/>
</g>
<defs>
<clipPath id="clip0_5808_8114">
<rect width="197.821" height="161" fill="white"/>
</clipPath>
</defs>
</svg>
