<svg width="37" height="37" viewBox="0 0 37 37" fill="none" xmlns="http://www.w3.org/2000/svg">
<g clip-path="url(#clip0_5259_656)">
<path d="M15.8571 18.0935V24.599H11.7911L9.35156 21.3463L11.7911 18.0935H15.8571Z" fill="#81E3E2"/>
<path d="M11.7912 18.0935V24.599H4.06595L0 21.3463L4.06595 18.0935H11.7912Z" fill="#ABECEC"/>
<path d="M32.9342 9.14844H30.4946V15.6539H32.9342L37.0001 12.4012L32.9342 9.14844Z" fill="#81E3E2"/>
<path d="M21.1431 9.14844H30.4947L34.5607 12.4012L30.4947 15.6539H21.1431V9.14844Z" fill="#ABECEC"/>
<path d="M15.8571 9.14844V15.6539H11.7911L9.35156 12.4012L11.7911 9.14844H15.8571Z" fill="#81E3E2"/>
<path d="M11.7912 9.14844V15.6539H4.06595L0 12.4012L4.06595 9.14844H11.7912Z" fill="#ABECEC"/>
<path d="M18.5 31.6184L20.5753 33.2448L18.5 37.0001V31.6184Z" fill="#272727"/>
<path d="M16.4248 33.2448L17.9073 31.6184L19.3897 33.2448L18.5001 37.0001L16.4248 33.2448Z" fill="#4D4D4D"/>
<path d="M19.3896 27.6484L22.7692 29.2748L20.5752 33.2448H19.3896V27.6484Z" fill="#FEA680"/>
<path d="M20.3299 29.2748L19.3899 33.2448H16.4249L14.231 29.2748L17.2804 27.6484L20.3299 29.2748Z" fill="#FFC1A6"/>
<path d="M20.3297 8.33519L22.7692 6.70878V4.26924C22.7692 1.91179 20.8574 0 18.5 0L20.3297 8.33519Z" fill="#FE5F1A"/>
<path d="M14.231 4.26924C14.231 1.91099 16.1419 0 18.5002 0C19.511 0 20.3299 1.91179 20.3299 4.26924V8.33519L14.2537 6.70878H14.231V4.26924Z" fill="#FE834D"/>
<path d="M18.7031 7.52197L22.7691 9.14831V29.2747H20.3295L18.7031 7.52197Z" fill="#DFC136"/>
<path d="M16.8735 7.52197L20.3296 9.14831V29.2747H18.4999L16.8735 7.52197Z" fill="#FEDC3D"/>
<path d="M14.2537 9.14831L18.5002 7.52197V29.2747H14.231V9.14831H14.2537Z" fill="#FFE777"/>
<path d="M20.3295 9.14828H22.7691V6.70874H20.3295L18.7031 7.92851L20.3295 9.14828Z" fill="#B9B9B9"/>
<path d="M20.3299 6.70874H14.231V9.14828H20.3299V6.70874Z" fill="#DCDCDC"/>
</g>
<defs>
<clipPath id="clip0_5259_656">
<rect width="37" height="37" fill="white"/>
</clipPath>
</defs>
</svg>
