<svg width="22" height="22" viewBox="0 0 22 22" fill="none" xmlns="http://www.w3.org/2000/svg">
<g clip-path="url(#clip0_5945_2)">
<path d="M14.8109 14.7206C14.6085 14.7206 14.4465 14.8736 14.424 15.0761C14.2485 16.8127 12.7819 18.1669 10.9958 18.1669C9.21418 18.1669 7.74751 16.8127 7.56755 15.0761C7.54506 14.8781 7.3831 14.7206 7.18064 14.7206H2.50171C1.52093 14.7206 0.724609 15.517 0.724609 16.4977V20.2229C0.724609 21.2037 1.52093 22 2.50171 22H19.4988C20.4796 22 21.2759 21.2037 21.2759 20.2229V16.5022C21.2759 15.5215 20.4796 14.7251 19.4988 14.7251H14.8109V14.7206Z" fill="#3D3D3D"/>
<path d="M13.6545 8.93497L12.2643 10.3252V1.26421C12.2643 0.566871 11.6974 0 11.0001 0C10.3028 0 9.73589 0.566871 9.73589 1.26421V10.3252L8.34571 8.93497C7.91831 8.50757 7.23446 8.39959 6.73058 8.73701C6.04223 9.19591 5.97475 10.1362 6.52812 10.6896L10.2533 14.4147C10.6672 14.8286 11.3375 14.8286 11.7514 14.4147L15.4766 10.6896C16.03 10.1362 15.9625 9.19591 15.2741 8.73701C14.7657 8.39509 14.0819 8.50307 13.6545 8.93497Z" fill="#3D3D3D"/>
</g>
<defs>
<clipPath id="clip0_5945_2">
<rect width="22" height="22" fill="white"/>
</clipPath>
</defs>
</svg>
