<svg width="43" height="38" viewBox="0 0 43 38" fill="none" xmlns="http://www.w3.org/2000/svg">
<rect width="42.56" height="38" rx="6" fill="white"/>
<g clip-path="url(#clip0_1152_3207)">
<path d="M14.123 17.6362C15.009 14.9516 17.5318 13.0235 20.5201 13.0235C22.1265 13.0235 23.5774 13.5935 24.7174 14.5262L28.0337 11.2099C26.0128 9.44805 23.4219 8.35986 20.5201 8.35986C16.0267 8.35986 12.158 10.9232 10.2981 14.6774L14.123 17.6362Z" fill="#EA4335"/>
<path d="M24.3588 25.4718C23.3234 26.1403 22.0078 26.4962 20.5201 26.4962C17.5432 26.4962 15.0282 24.5829 14.1332 21.9143L10.2957 24.8281C12.1532 28.5888 16.0218 31.1598 20.5201 31.1598C23.3063 31.1598 25.9686 30.1693 27.9625 28.3094L24.3588 25.4718Z" fill="#34A853"/>
<path d="M27.9625 28.3096C30.0477 26.3645 31.4018 23.4685 31.4018 19.76C31.4018 19.0863 31.2982 18.3609 31.1427 17.6873H20.52V22.0918H26.6346C26.3329 23.5729 25.523 24.7201 24.3587 25.4719L27.9625 28.3096Z" fill="#4A90E2"/>
<path d="M14.1332 21.9145C13.9065 21.2385 13.7838 20.514 13.7838 19.76C13.7838 19.0173 13.9028 18.3034 14.123 17.6363L10.2981 14.6775C9.53487 16.2074 9.12012 17.9316 9.12012 19.76C9.12012 21.5835 9.54266 23.3036 10.2957 24.8282L14.1332 21.9145Z" fill="#FBBC05"/>
</g>
<defs>
<clipPath id="clip0_1152_3207">
<rect width="22.8" height="22.8" fill="white" transform="translate(9.12012 8.35986)"/>
</clipPath>
</defs>
</svg>
