<svg width="78" height="78" viewBox="0 0 78 78" fill="none" xmlns="http://www.w3.org/2000/svg">
<path d="M25.3524 59.1289H52.801C53.938 59.1289 54.8597 58.2072 54.8597 57.0702V33.7389C54.8597 32.6019 53.938 31.6802 52.801 31.6802H50.7424V25.5043C50.7424 19.0718 45.5092 13.8386 39.0767 13.8386C32.6442 13.8386 27.411 19.0718 27.411 25.5043V31.6802H25.3524C24.2154 31.6802 23.2937 32.6019 23.2937 33.7389V57.0702C23.2937 58.2072 24.2154 59.1289 25.3524 59.1289ZM44.9069 43.9437L39.0741 49.7766C38.6721 50.1786 38.1452 50.3796 37.6185 50.3796C37.0917 50.3796 36.5647 50.1786 36.1629 49.7766L33.2465 46.8601C32.4425 46.0562 32.4425 44.7529 33.2465 43.9488C34.0503 43.1448 35.3538 43.1448 36.1578 43.9488L37.6186 45.4095L41.9959 41.0324C42.7997 40.2284 44.1032 40.2284 44.9072 41.0324C45.711 41.8365 45.711 43.1398 44.9069 43.9437ZM31.5283 25.5043C31.5283 21.3421 34.9145 17.9559 39.0767 17.9559C43.2389 17.9559 46.6251 21.3421 46.6251 25.5043V31.6802H31.5283V25.5043Z" fill="#004164"/>
<circle cx="39" cy="39" r="38.5" stroke="#004164"/>
</svg>
